<?xml version="1.0" standalone="no"?>
<!DOCTYPE svg PUBLIC "-//W3C//DTD SVG 20010904//EN"
 "http://www.w3.org/TR/2001/REC-SVG-20010904/DTD/svg10.dtd">
<svg version="1.0" xmlns="http://www.w3.org/2000/svg"
 width="435.000000pt" height="435.000000pt" viewBox="0 0 435.000000 435.000000"
 preserveAspectRatio="xMidYMid meet">
<metadata>
Created by potrace 1.11, written by Peter Selinger 2001-2013
</metadata>
<g transform="translate(0.000000,435.000000) scale(0.100000,-0.100000)"
fill="#000000" stroke="none">
<path d="M1590 4232 l-235 -117 -158 -220 c-88 -121 -174 -251 -192 -290 -18
-38 -59 -124 -91 -190 -46 -96 -57 -130 -58 -170 0 -62 14 -311 20 -339 21
-114 26 -126 53 -142 l28 -17 2 -131 c2 -131 7 -225 15 -281 11 -69 18 -165
12 -165 -3 0 -22 9 -42 20 -33 17 -40 18 -65 4 -20 -10 -31 -26 -39 -57 -6
-23 -16 -57 -21 -75 -6 -18 -8 -51 -4 -75 3 -23 8 -62 11 -87 3 -25 21 -107
40 -182 24 -95 34 -160 34 -213 0 -43 6 -90 14 -110 14 -32 17 -34 41 -25 31
12 32 11 39 -90 4 -41 8 -86 10 -100 3 -14 7 -58 11 -99 4 -54 22 -115 66
-235 70 -187 31 -141 389 -466 63 -57 157 -142 209 -189 52 -47 99 -90 106
-96 6 -5 24 -22 41 -37 32 -30 100 -44 189 -41 28 1 86 2 130 1 44 0 125 -1
180 -1 l100 -1 150 110 c82 60 179 140 215 178 36 38 81 85 100 105 82 87 296
315 311 332 12 15 49 166 74 309 4 21 39 184 50 230 2 8 4 26 4 39 l1 24 21
-27 c31 -39 71 -36 92 9 15 31 15 38 1 77 -14 40 -13 67 3 163 3 17 11 68 18
115 7 47 23 121 36 165 23 84 27 138 17 243 -7 65 -13 74 -65 103 -19 10 -30
9 -63 -6 -22 -10 -42 -16 -45 -13 -3 2 2 28 10 56 28 92 53 235 59 332 4 52 9
118 11 145 6 68 14 184 20 275 3 41 7 99 10 127 3 29 1 69 -4 90 -6 21 -12 49
-14 63 -4 22 -43 186 -79 333 l-12 47 -88 0 -88 0 31 58 c18 31 42 75 54 97
l22 40 -74 182 -75 181 -249 62 c-137 34 -275 63 -307 65 -53 4 -259 10 -602
20 l-145 4 -235 -117z"/>
</g>
</svg>
