<?xml version="1.0" encoding="utf-8"?>
<!-- Generator: Adobe Illustrator 19.0.0, SVG Export Plug-In . SVG Version: 6.00 Build 0)  -->
<svg version="1.1" id="Layer_1" xmlns="http://www.w3.org/2000/svg" xmlns:xlink="http://www.w3.org/1999/xlink" x="0px" y="0px"
	 viewBox="0 0 585.6 254.4" style="enable-background:new 0 0 585.6 254.4;" xml:space="preserve">
<style type="text/css">
	.st0{fill:#60A767;}
	.st1{fill:#FFFFFF;}
</style>
<rect id="XMLID_62_" x="0" y="0" class="st0" width="585.6" height="254.4"/>
<g id="XMLID_63_">
	<path id="XMLID_102_" class="st1" d="M336.9,118.3c-1.5-2.3-2.4-5-2.4-8v-0.1c0-7.5,5.5-13.6,13.4-13.6h0.1
		c7.9,0,13.4,6.1,13.4,13.6v0.1c0,2.4-0.5,4.5-1.3,6.4l-2.7-2.4l-6.1,6.9c5.3,0.9,10.8,1.6,16.4,2l0,0c2.6-3.7,4-8,4-12.7v-0.1
		c0-12.7-9.9-23-23.7-23c-13.8,0-23.8,10.4-23.8,23.1v0.1c0,1.3,0.1,2.6,0.3,3.9C328.5,116,332.6,117.2,336.9,118.3z"/>
	<path id="XMLID_101_" class="st1" d="M405.4,123.3c3.1-0.3,6.1-0.6,9.1-0.9c0.9-2.5,1.4-5.5,1.4-8.8V88.3h-9.8v25.6
		c0,4.9-1.7,8.2-4.8,9.7C402.6,123.5,404,123.4,405.4,123.3z"/>
	<path id="XMLID_100_" class="st1" d="M432.6,119.4V88.3h-9.8v32.9C426.1,120.7,429.4,120.1,432.6,119.4z"/>
	<path id="XMLID_99_" class="st1" d="M450,115.2v-10.6l6.5,8.6c3.2-1,6.2-2.1,9.2-3.3l-16.4-21.6h-9.1v29.4
		C443.6,116.9,446.9,116.1,450,115.2z"/>
	<path id="XMLID_98_" class="st1" d="M392.6,124c-3.7-1.3-5.8-4.9-5.8-10.4V88.3H377v25.5c0,4,0.7,7.4,1.9,10.1
		C383.4,124.1,388,124.1,392.6,124z"/>
	<path id="XMLID_97_" class="st1" d="M440.3,122.2v10.8h9.7v-12.5C446.8,121,443.6,121.6,440.3,122.2z"/>
	<path id="XMLID_96_" class="st1" d="M422.8,124.5v8.4h9.8v-9.6C429.4,123.8,426.1,124.2,422.8,124.5z"/>
	<path id="XMLID_95_" class="st1" d="M412.5,125.5c-11,0.9-21.8,1.2-32.2,1c3.3,4.8,8.8,7.2,16,7.2c7.7,0,13.5-2.7,16.8-8.2
		C412.9,125.4,412.7,125.5,412.5,125.5z"/>
	<path id="XMLID_94_" class="st1" d="M346,123.9c-0.1,0-0.2,0-0.2,0c-6.8-0.9-13.3-2.1-19.5-3.4c3.6,7.9,11.6,13.3,21.6,13.3
		c5,0,9.6-1.5,13.3-3.9l7,6.3l6.3-7.1l-3.4-2.8C362.5,125.7,354.1,125,346,123.9z"/>
	<path id="XMLID_93_" class="st1" d="M470.3,115.8L470.3,115.8c-3.2,0.9-6.5,1.7-9.9,2.4l11.2,14.7h8.4V113
		C476.9,114,473.6,114.9,470.3,115.8L470.3,115.8z"/>
	<path id="XMLID_92_" class="st1" d="M470.3,88.3V108c3.4-1.4,6.6-2.9,9.7-4.5V88.3H470.3z"/>
	<path id="XMLID_91_" class="st1" d="M182.9,101.8c3.4-0.2,6.9-0.4,10.3-0.5c2.3-2.9,5.8-4.7,9.6-4.7c5.2,0,8.2,1.7,11.7,4.5
		l6.2-7.5c-4.7-4-9.5-6.1-17.5-6.1c-10.2,0-18.4,6-21.8,14.4C181.8,101.9,182.3,101.8,182.9,101.8z"/>
	<path id="XMLID_90_" class="st1" d="M239,102.4c2.3-3.5,6.2-5.8,11-5.8c6,0,10.8,3.7,12.6,8.9c3.8,0.7,7.5,1.4,11,2.2
		c-1.3-11.4-10.8-20.2-23.5-20.2c-10.3,0-18.5,5.8-22,14.1C231.8,101.8,235.4,102.1,239,102.4z"/>
	<path id="XMLID_89_" class="st1" d="M161.5,103.7V88.3h-9.8v16.7C154.9,104.5,158.2,104.1,161.5,103.7z"/>
	<path id="XMLID_88_" class="st1" d="M309,115.8L309,115.8L309,115.8l-20.9-27.5H279V109c3.4,0.9,6.6,1.8,9.7,2.8v-7.2l21.6,28.4
		h8.4v-14.4C315.4,117.7,312.1,116.8,309,115.8L309,115.8z"/>
	<path id="XMLID_87_" class="st1" d="M279,132.9h9.7v-13.1c-3.1-1.5-6.3-2.9-9.7-4.2V132.9z"/>
	<path id="XMLID_86_" class="st1" d="M309,88.3V108c3.1,1.6,6.3,3,9.7,4.4V88.3H309z"/>
	<path id="XMLID_85_" class="st1" d="M263.6,110.6C263.6,110.6,263.6,110.6,263.6,110.6l0,0.2c0,7.7-5.5,13.9-13.4,13.9
		c-7.9,0-13.5-6.4-13.5-14v-0.1c0-1.8,0.3-3.5,0.9-5.1c-3.4-0.4-6.8-0.8-10.3-1.1c-0.6,2-0.9,4.1-0.9,6.3v0.1c0,12.7,9.9,23,23.7,23
		c12.7,0,22.1-8.8,23.6-20.1C270.4,112.5,267,111.5,263.6,110.6z"/>
	<path id="XMLID_84_" class="st1" d="M202.8,115.7h9.9v6.4c-2.5,1.8-5.7,2.7-9.2,2.7c-7.9,0-13.5-6-13.5-14.2v-0.1
		c0-2.4,0.5-4.6,1.5-6.5c-1.8,0.1-3.7,0.2-5.6,0.4c-1.8,0.1-3.7,0.3-5.5,0.5c-0.5,1.9-0.7,3.8-0.7,5.8v0.1c0,13.2,9.6,23,23.5,23
		c8.2,0,14.5-3.2,19.1-7.1v-19.4h-19.4V115.7z"/>
	<path id="XMLID_83_" class="st1" d="M161.5,107.4c-3.3,0.6-6.6,1.2-9.8,1.9v23.6h27.9v-9.2h-18.1V107.4z"/>
	<path id="XMLID_82_" class="st1" d="M105.1,125.1l-3.3,7.9h10l3.8-9.2H135l3.8,9.2h10.3l-8.9-20.8
		C127.4,115.6,115.5,120,105.1,125.1z"/>
	<path id="XMLID_81_" class="st1" d="M120.8,110.8l4.5-11l3.7,9.1c3-0.6,6-1.2,9.1-1.8L129.9,88h-9.1L110,113.6
		C113.5,112.6,117.1,111.7,120.8,110.8z"/>
	<path id="XMLID_79_" class="st1" d="M302.6,153.5L302.6,153.5c0-7.5,5.5-13.5,13.4-13.5c4.8,0,7.7,1.7,10.2,4.1l-2.9,3.4
		c-2.1-1.9-4.3-3.2-7.3-3.2c-5,0-8.6,4.1-8.6,9.2v0.1c0,5.1,3.6,9.3,8.6,9.3c3.2,0,5.2-1.3,7.5-3.4l2.9,3c-2.7,2.8-5.7,4.6-10.6,4.6
		C308.2,166.9,302.6,161,302.6,153.5z"/>
	<path id="XMLID_76_" class="st1" d="M328.8,153.5L328.8,153.5c0-7.4,5.7-13.5,13.7-13.5c8,0,13.6,6.1,13.6,13.4v0.1
		c0,7.3-5.7,13.5-13.7,13.5C334.4,166.9,328.8,160.8,328.8,153.5z M351.2,153.5L351.2,153.5c0-5.1-3.7-9.3-8.9-9.3
		c-5.2,0-8.8,4.1-8.8,9.2v0.1c0,5.1,3.7,9.3,8.9,9.3C347.6,162.7,351.2,158.5,351.2,153.5z"/>
	<path id="XMLID_74_" class="st1" d="M360.8,140.4h4.6v21.9H379v4.2h-18.3V140.4z"/>
	<path id="XMLID_71_" class="st1" d="M383.8,140.4h4.6v21.9H402v4.2h-18.3V140.4z"/>
	<path id="XMLID_68_" class="st1" d="M406.8,140.4h19.3v4.1h-14.7v6.8h13.1v4.1h-13.1v7h14.9v4.1h-19.5V140.4z"/>
	<path id="XMLID_66_" class="st1" d="M430.2,153.5L430.2,153.5c0-7.4,5.6-13.5,13.4-13.5c4.5,0,7.3,1.3,10,3.5l-2.9,3.5
		c-2-1.7-4-2.8-7.3-2.8c-4.8,0-8.4,4.2-8.4,9.2v0.1c0,5.4,3.5,9.3,8.9,9.3c2.5,0,4.7-0.8,6.3-2v-4.9h-6.7v-4h11.1v10.9
		c-2.6,2.2-6.3,4.1-10.9,4.1C435.6,166.9,430.2,161.1,430.2,153.5z"/>
	<path id="XMLID_64_" class="st1" d="M460.5,140.4h19.3v4.1h-14.7v6.8h13.1v4.1h-13.1v7H480v4.1h-19.5V140.4z"/>
</g>
</svg>
