<?xml version="1.0" encoding="utf-8"?>
<!-- Generator: Adobe Illustrator 19.0.0, SVG Export Plug-In . SVG Version: 6.00 Build 0)  -->
<svg version="1.1" id="Layer_1" xmlns="http://www.w3.org/2000/svg" xmlns:xlink="http://www.w3.org/1999/xlink" x="0px" y="0px"
	 viewBox="0 0 585.6 254.4" style="enable-background:new 0 0 585.6 254.4;" xml:space="preserve">
<style type="text/css">
	.st0{fill:#0065A4;}
	.st1{fill:#FFFFFF;}
</style>
<rect id="XMLID_14_" class="st0" width="585.6" height="254.4"/>
<path id="XMLID_28_" class="st1" d="M331.9,134.3c-0.8-4.1-2.5-7.5-4.8-10.5c-4.8-6.3-12.5-10.3-23-10.3
	c-16.3,0-26.3,11.1-29.2,22.7c-2.7-8.2-9.8-13.8-17.3-16.1c5.7-4.1,8.6-10,8.6-16.8c0-6.3-2.6-12-7-15.7c-6.4-5.4-15.1-6.5-25.9-6.5
	c-8.2,0-11.4,0-21,0v90.7c6,0,12.1,0,18,0c5.3,0,10.5,0,15.3-0.2c15.3-0.6,25.8-8.3,29.1-19.9c1.2,5.1,3.4,9.3,6.3,12.5
	c5.9,6.5,14.4,9,23,9c10.6,0,18.2-3.1,23.5-7.8l-7.5-8.8c-3.8,2.8-8.6,4.5-14,4.5c-10.7,0-15.4-6.8-15.8-13.3h41.6v23.9h15.6V81.6
	h-15.6V134.3z M228.4,93.4l4.3,0c4.2,0,7.5,0.5,9.9,1.4c4.7,1.8,6.9,5.6,6.9,10.2c0,3.9-1.5,10.1-9.8,11.8c-1.4,0.3-3.4,0.4-6.2,0.4
	c-4,0-5.1,0-5.1,0V93.4z M246,158.5c-2,0.4-4.3,0.4-6.3,0.4c-5.9,0-11.4,0-11.4,0l0-29.6c0,0,6,0,10.2,0c3.2,0,6.8,0.4,8.9,0.9
	c7.1,1.9,11.2,7,11.2,13.7C258.7,151,254.9,156.9,246,158.5z M290.6,136.7c1.4-6.6,6.3-11.4,13.5-11.4c7.2,0,12,4.3,13.2,11.4H290.6
	z"/>
<rect id="XMLID_27_" x="357.9" y="81.6" class="st1" width="15.3" height="90.2"/>
</svg>
