<?xml version="1.0" encoding="utf-8"?>
<!-- Generator: Adobe Illustrator 19.0.0, SVG Export Plug-In . SVG Version: 6.00 Build 0)  -->
<svg version="1.1" id="Layer_1" xmlns="http://www.w3.org/2000/svg" xmlns:xlink="http://www.w3.org/1999/xlink" x="0px" y="0px"
	 viewBox="0 0 500 500" style="enable-background:new 0 0 500 500;" xml:space="preserve">
<style type="text/css">
	.st0{fill:#FFFFFF;}
	.st1{fill:#0066A4;}
</style>
<g id="XMLID_21_">
	<polygon id="XMLID_11_" class="st0" points="397,363.6 103,363.6 103,136.4 397,136.4 397,363.6 	"/>
	<path id="XMLID_10_" class="st0" d="M170.4,226.6c12.3-2.5,14.6-11.7,14.6-17.6c0-6.9-3.3-12.5-10.3-15.2c-3.5-1.4-8.4-2-14.7-2
		l-6.4,0v35.5c0,0,1.7,0,7.6,0C165.4,227.2,168.4,227,170.4,226.6L170.4,226.6z"/>
	<path id="XMLID_9_" class="st0" d="M181.9,246.6c-3.1-0.8-8.5-1.3-13.2-1.3c-6.2,0-15.1,0-15.1,0l0,43.9c0,0,9.8,0,18.5,0
		c18.7,0,26.4-10,26.4-22.2C198.6,256.9,192.5,249.4,181.9,246.6L181.9,246.6z"/>
	<path id="XMLID_8_" class="st0" d="M265.8,239.2c-10.7,0-17.9,7.1-20,16.9h39.6C283.7,245.5,276.5,239.2,265.8,239.2L265.8,239.2z"
		/>
	<path class="st1" d="M245.9,256.1c2-9.8,9.3-16.9,20-16.9c10.7,0,17.8,6.3,19.7,16.9H245.9L245.9,256.1z M179.8,288.5
		c-2.9,0.5-6.4,0.6-9.3,0.6c-8.7,0-16.9,0-16.9,0l0-43.9c0,0,8.8,0,15.1,0c4.8,0,10.1,0.5,13.2,1.3c10.6,2.8,16.7,10.4,16.7,20.4
		C198.6,277.4,193,286.1,179.8,288.5L179.8,288.5z M153.6,191.8l6.4,0c6.2,0,11.1,0.7,14.7,2c7,2.7,10.3,8.3,10.3,15.2
		c0,5.9-2.2,15.1-14.6,17.6c-2.1,0.4-5,0.7-9.2,0.7c-5.9,0-7.6,0-7.6,0V191.8L153.6,191.8z M307.2,252.6c-1.3-6.1-3.7-11.1-7.1-15.6
		c-7.1-9.4-18.6-15.3-34.1-15.3c-24.2,0-39,16.4-43.4,33.7c-4-12.2-14.5-20.4-25.7-23.9c8.4-6.1,12.8-14.9,12.8-24.9
		c0-9.3-3.9-17.7-10.3-23.2c-9.5-8.1-22.4-9.7-38.4-9.7c-12.2,0-16.9,0-31.2,0v134.6c8.8,0,17.9,0,26.8,0c7.9,0,15.6,0,22.7-0.3
		c22.7-0.9,38.2-12.3,43.2-29.5c1.7,7.6,5,13.8,9.3,18.6c8.7,9.6,21.4,13.4,34.2,13.4c15.7,0,27.1-4.6,34.8-11.5l-11.1-13.1
		c-5.6,4.2-12.8,6.7-20.8,6.7c-15.8,0-22.8-10.1-23.4-19.7h61.8v35.4h23.1v-134h-23.1V252.6L307.2,252.6z"/>
	<polygon id="XMLID_2_" class="st1" points="345.8,174.3 345.8,308.2 368.6,308.2 368.6,174.3 345.8,174.3 	"/>
</g>
</svg>
