<?xml version="1.0" encoding="utf-8"?>
<!-- Generator: Adobe Illustrator 19.0.0, SVG Export Plug-In . SVG Version: 6.00 Build 0)  -->
<svg version="1.1" id="Layer_1" xmlns="http://www.w3.org/2000/svg" xmlns:xlink="http://www.w3.org/1999/xlink" x="0px" y="0px"
	 viewBox="-12 311.6 585.6 171.4" style="enable-background:new -12 311.6 585.6 171.4;" xml:space="preserve">
<style type="text/css">
	.st0{fill:#0065A4;}
	.st1{fill:#FFFFFF;}
</style>
<rect id="XMLID_14_" x="-12" y="311.6" class="st0" width="585.6" height="171.4"/>
<path id="XMLID_28_" class="st1" d="M306.2,401.4c-0.5-2.7-1.6-4.9-3.1-6.8c-3.1-4.1-8.1-6.7-14.9-6.7c-10.6,0-17,7.2-18.9,14.7
	c-1.7-5.3-6.3-8.9-11.2-10.4c3.7-2.7,5.6-6.5,5.6-10.9c0-4.1-1.7-7.8-4.5-10.2c-4.1-3.5-9.8-4.2-16.8-4.2c-5.3,0-7.4,0-13.6,0v58.7
	c3.9,0,7.8,0,11.7,0c3.4,0,6.8,0,9.9-0.1c9.9-0.4,16.7-5.4,18.8-12.9c0.8,3.3,2.2,6,4.1,8.1c3.8,4.2,9.3,5.8,14.9,5.8
	c6.9,0,11.8-2,15.2-5.1l-4.9-5.7c-2.5,1.8-5.6,2.9-9.1,2.9c-6.9,0-10-4.4-10.2-8.6h26.9v15.5h10.1v-58.3h-10.1L306.2,401.4
	L306.2,401.4z M239.1,374.9h2.8c2.7,0,4.9,0.3,6.4,0.9c3,1.2,4.5,3.6,4.5,6.6c0,2.5-1,6.5-6.3,7.6c-0.9,0.2-2.2,0.3-4,0.3
	c-2.6,0-3.3,0-3.3,0L239.1,374.9L239.1,374.9z M250.5,417.1c-1.3,0.3-2.8,0.3-4.1,0.3c-3.8,0-7.4,0-7.4,0v-19.2c0,0,3.9,0,6.6,0
	c2.1,0,4.4,0.3,5.8,0.6c4.6,1.2,7.3,4.5,7.3,8.9C258.8,412.2,256.3,416.1,250.5,417.1z M279.4,403c0.9-4.3,4.1-7.4,8.7-7.4
	s7.8,2.8,8.5,7.4H279.4z"/>
<rect id="XMLID_27_" x="323" y="367.3" class="st1" width="9.9" height="58.4"/>
</svg>
