<?xml version="1.0" encoding="utf-8"?>
<!-- Generator: Adobe Illustrator 19.0.0, SVG Export Plug-In . SVG Version: 6.00 Build 0)  -->
<svg version="1.1" id="Layer_1" xmlns="http://www.w3.org/2000/svg" xmlns:xlink="http://www.w3.org/1999/xlink" x="0px" y="0px"
	 viewBox="-12 269.6 585.6 254.4" style="enable-background:new -12 269.6 585.6 254.4;" xml:space="preserve">
<style type="text/css">
	.st0{fill:#FF4848;}
	.st1{fill:#FFFFFF;}
</style>
<rect x="-12" y="269.6" class="st0" width="585.6" height="254.4"/>
<g>
	<path class="st1" d="M153.6,398l-0.9-0.3l-0.2-1l-1.6-0.6c-4.4-1.5-8.9-2.8-13.6-3.2c-3-0.3-6.1-0.1-8.4,1.4
		c-2.3-1.5-5.3-1.7-8.4-1.4c-4.7,0.4-9.2,1.7-13.6,3.2l-1.6,0.6l-0.2,1l-0.9,0.3l-5.3,22.1c3-0.5,9.1-1.4,12.5-1.8
		c4.2-0.5,7.8-0.7,12.6-0.5c0,0.2-0.1,0.4,0,0.5c0.6,0.5,1.7,0.5,2.6,0.6c0.9,0,1.3,0.1,2.3,0.1c0.9,0,1.3,0,2.3-0.1
		c0.9-0.1,2,0,2.6-0.6c0.1-0.2,0.1-0.4,0-0.5c4.8-0.2,8.4,0,12.6,0.5c3.4,0.4,9.5,1.2,12.5,1.8L153.6,398z M128.2,414.6
		c-2.5-1.3-5.5-1.5-8.5-1.3c-6.4,0.4-12.1,1.8-18.1,3.9l4.6-20c4.6-1.8,9.5-3.2,14.5-3.6c3.3-0.2,6.1,0.2,7.7,1.4L128.2,414.6z
		 M137.9,413.3c-3-0.2-6.1,0-8.5,1.3l-0.1-19.6c1.6-1.2,4.5-1.6,7.8-1.4c5,0.4,9.9,1.8,14.5,3.6l4.5,20
		C150,415.1,144.3,413.7,137.9,413.3z"/>
	<path class="st1" d="M130.2,348.2l5.2,10.5l0,0c0,0,0.1,0.2,0.3,0.5c0.2-0.1,0.3-0.1,0.5-0.2c0.2-0.1,8.8-5,8.8-5
		s-3.8,18.6-4.2,20.4c1.7-1.8,8.5-8.9,8.5-8.9s2.9,5.5,3.6,6.8c0.1,0,0.9-0.2,0.9-0.2l-0.5,0.1l10.4-2.9l-3.3,11.7
		c0,0,0,0.1-0.1,0.1l0,0v0.1l0,0c0,0-0.3,0.8-0.4,1.2c0,0.2-0.2,0.5-0.2,0.6c0.6,0.3,5.3,2.8,5.3,2.8s-6.1,5.4-11.1,9.8
		c0,0.2,0.1,0.5,0.1,0.6c0.1,0,0.9,0.3,0.9,0.3l5.6,23.6c3.8-6.8,5.6-14.4,5.6-22.5c0,0,0-32.9-0.1-44.5
		C155.5,350.1,141.6,348.5,130.2,348.2"/>
	<path class="st1" d="M128.8,445.5c1-0.4,2.4-0.7,3.4-1.1c9.7-4,18.4-10.2,25.2-19c0.8-1.1,1.5-2.1,2.2-3.3l-1.1-0.2
		c-3.1-0.6-9.2-1.4-12.4-1.8c-0.3,0-0.7-0.1-1-0.1c-0.1,0-0.1,0-0.2,0c-0.3,0-0.7-0.1-1-0.1l0,0c-0.3,0-0.7-0.1-1-0.1h-0.1
		c-0.3,0-0.7,0-1-0.1l0,0c-2.2-0.1-4.3-0.2-6.7-0.1l-0.1,0.1c-0.9,0.9-2.3,1-3.2,1h-0.5h-0.5H129l-2.3-0.1h-0.6
		c-1-0.1-2.3-0.1-3.2-1c0,0,0,0-0.1-0.1c-2,0-3.9,0-5.7,0.1c-0.4,0-0.9,0-1.3,0.1l0,0c-0.2,0-0.4,0-0.6,0l0,0c-0.2,0-0.4,0-0.6,0
		h-0.1c-0.2,0-0.4,0-0.6,0c-0.1,0-0.1,0-0.2,0c-0.2,0-0.3,0-0.5,0c-0.1,0-0.2,0-0.3,0c-0.1,0-0.3,0-0.4,0c-0.2,0-0.5,0.1-0.7,0.1
		c-3.2,0.3-9.3,1.2-12.4,1.8l-1.1,0.2c0.7,1.1,1.4,2.2,2.2,3.3c6.8,8.8,15.5,14.9,25.2,19C126.4,444.8,127.8,445.1,128.8,445.5"/>
	<path class="st1" d="M127.4,348.1c-11.4-0.1-25.3,2-35.9,5c-0.1,11.6-0.1,44.5-0.1,44.5c-0.1,8.1,1.8,15.7,5.5,22.5l5.7-23.6
		c0,0,0.8-0.3,0.9-0.3c0-0.1,0.1-0.3,0.1-0.5c-5-4.4-11.2-9.9-11.2-9.9s4.7-2.4,5.3-2.8c0-0.1-0.2-0.5-0.2-0.7
		c-0.1-0.3-0.2-0.7-0.3-0.9l0,0l-3.4-12.1l10.4,2.9l-0.5-0.1c0.1,0,0.8,0.1,0.9,0.2c0.7-1.3,3.6-6.8,3.6-6.8s6.8,7.2,8.5,8.9
		c-0.4-1.8-4.2-20.4-4.2-20.4s8.6,4.9,8.8,5s0.3,0.1,0.5,0.2c0.2-0.3,0.3-0.5,0.3-0.5l0,0l4.7-9.4L127.4,348.1"/>
	<path class="st1" d="M100,383.5c0,0.6-0.6,1.2-0.9,1.4l-2.9,1.5l9.3,8.2l0.6-0.2l0,0c5.3-1.9,9.8-2.9,14.1-3.3
		c3.5-0.3,6.3,0,8.5,1.2c2.2-1.1,5-1.5,8.5-1.2c4.2,0.4,8.7,1.5,14,3.3l0,0l0.6,0.2l9.2-8.2l-2.9-1.5c-0.3-0.2-0.8-0.8-0.9-1.4
		c0-0.2,0-0.1,0-0.1l0,0c0.1-0.3,0-0.3,0.3-1.1c0,0,0.5-1.7,0.6-1.7l2.2-7.9l-6.6,1.8c-0.4,0-0.7,0.1-1,0.2
		c-0.6,0.1-1.1,0.2-1.5-0.2l-2.6-5l-7.5,7.9l-0.6,0.6c-1.3,1-3-0.1-2.3-2.8l3.4-16.6l-4.6,2.6c-0.6,0.3-1.2,0.5-2,0.7
		c-0.3,0.1-0.6-0.1-0.8-0.3c-0.3-0.5-0.9-1.5-1.1-1.9l-4.6-9.3l-4.6,9.3c-0.2,0.4-0.7,1.3-1.1,1.9c-0.2,0.2-0.5,0.4-0.8,0.3
		c-0.9-0.3-1.4-0.5-2-0.7l-4.6-2.6l3.4,16.6c0.8,2.7-1,3.8-2.3,2.8l-0.6-0.6l-7.5-7.9l-2.6,5c-0.4,0.4-0.9,0.3-1.5,0.2
		c-0.4-0.1-0.7-0.2-1-0.2l-6.3-1.9l2.2,7.9l0.6,1.7c0.3,0.9,0.2,0.8,0.3,1.1l0,0C100.1,383.3,100,383.3,100,383.5z M134.4,361.5
		C134.2,361.3,134.2,361.1,134.4,361.5L134.4,361.5z M123.1,361.5C123.4,361.2,123.3,361.3,123.1,361.5L123.1,361.5z"/>
	<g>
		<path class="st1" d="M125.7,399.9c-2.6-1.1-5.7-0.8-8.4-0.3c-3.3,0.6-4.8,1-8.4,2.2l0.2-0.9c0,0,4.5-1.8,10.7-2.5
			c0,0,3.5-0.4,6,0.6v0.9H125.7z"/>
		<path class="st1" d="M125.7,403.8c-2.6-1.1-5.7-0.8-8.4-0.3c-3.3,0.6-5.6,0.9-9.3,2.2l0.2-0.9c0,0,5.5-1.7,11.6-2.5
			c0,0,3.5-0.4,6,0.6v0.9H125.7z"/>
		<path class="st1" d="M125.7,407.9c-2.6-1.1-5.7-0.8-8.4-0.3c-3.3,0.6-6.6,1.4-10.4,2.7l0.2-0.9c0,0,6.5-2.3,12.6-3
			c0,0,3.5-0.4,6,0.6V407.9L125.7,407.9z"/>
		<path class="st1" d="M131.8,399.9c2.6-1.1,5.7-0.8,8.4-0.3c3.3,0.6,4.8,1,8.4,2.2l-0.2-0.9c0,0-4.5-1.8-10.7-2.5
			c0,0-3.5-0.4-6,0.6v0.9H131.8z"/>
		<path class="st1" d="M131.8,403.8c2.6-1.1,5.7-0.8,8.4-0.3c3.3,0.6,5.6,0.9,9.3,2.2l-0.2-0.9c0,0-5.5-1.7-11.6-2.5
			c0,0-3.5-0.4-6,0.6v0.9H131.8z"/>
		<path class="st1" d="M131.8,407.9c2.6-1.1,5.7-0.8,8.4-0.3c3.3,0.6,6.6,1.4,10.4,2.7l-0.2-0.9c0,0-6.5-2.3-12.6-3
			c0,0-3.5-0.4-6,0.6L131.8,407.9L131.8,407.9z"/>
	</g>
</g>
<g>
	<path class="st1" d="M242,368.4h-2.3c-0.3-11.4-4.9-16.6-15.5-16.6c-15.2,0-17.3,13.2-17.3,26.1c0,10.9,1.2,26.2,16,26.2
		c10.7,0,16.4-7.4,16.7-18.4h2.3V401c-7,3.8-13,5.5-19.2,5.5c-16.8,0-26-12-26-28.6c0-16.5,10.3-28.5,27-28.5
		c6.1,0,12.6,1.9,18.2,4.5v14.5H242z"/>
	<path class="st1" d="M259.6,383.3c3.2-0.8,5.6-1.5,8.5-2.5v-3.2c0-5.3-0.9-8.8-6-8.8c-3.9,0-6.2,1.2-6.2,6.3c0,3-1.2,4.4-3.9,4.4
		c-2,0-3.8-0.9-3.8-3.3c0-7.4,7.5-9.3,13.7-9.3c11.8,0,14.1,4.9,14.1,11.3v19.6c0,5.9,1.8,5.9,6.1,5.9v1.9h-5.9
		c-4.3,0-7.3-0.4-8.6-5c-3,4.6-6.8,5.9-11.9,5.9c-8,0-10.6-4.2-10.6-11.2c0-6.4,3.3-9.4,9.8-11L259.6,383.3z M260,385.4
		c-4.6,1.4-6.1,3.1-6.1,9.9c0,4.7,0.8,8.9,5,8.9c6.7,0,9.1-8.5,9.1-13.8V383L260,385.4z"/>
	<path class="st1" d="M287.5,369.7h-6.6v-1.9h14.5v8.9h0.2c1.6-4.5,4.9-9.8,10.8-9.8c4.6,0,7,2.9,7,7.4c0,3.1-1.2,5.2-4,5.2
		c-2.1,0-3.9-1.5-3.9-3.9c0-1.1,0.4-2.9,0.4-3.9c0-1.1-0.8-1.9-1.9-1.9c-4,0-8.6,8.8-8.6,17.2v16.9h6.4v1.9H281v-1.9h6.5V369.7z"/>
	<path class="st1" d="M311.1,350.4h14.5v53.3h6.6v1.9H311v-1.9h6.6v-51.4H311v-1.9H311.1z"/>
	<path class="st1" d="M339.3,384.3v0.6c0,10.8,1.5,19.2,11.4,19.2c7,0,10.6-4.3,12.6-9.9l1.7,0.6c-3.3,9-8.6,11.7-17.1,11.7
		c-11.6,0-17.5-9-17.5-19.9c0-10.4,6.7-19.9,18-19.9c9.9,0,16.6,7.1,16.6,17.5L339.3,384.3L339.3,384.3z M355.8,381.9
		c0-5.6-0.3-13.1-8.2-13.1c-6.6,0-8.3,8.3-8.3,13.1H355.8z"/>
	<path class="st1" d="M365.2,367.7h5.3v-10.2h7.9v10.3h8.6v1.9h-8.6v26.9c0,4.6,0.9,6.7,4.1,6.7c2.9,0,4.2-2.2,5.4-4.6l1.8,0.8
		l-0.7,1.4c-1.5,2.8-4.2,5.3-9.7,5.3c-8,0-8.7-4.6-8.7-9.5v-26.9h-5.3L365.2,367.7L365.2,367.7z"/>
	<path class="st1" d="M406.9,366.8c13.8,0,18,12.1,18,19.9c0,7.8-4.2,19.9-18,19.9s-18-12.1-18-19.9S393.1,366.8,406.9,366.8z
		 M406.9,404.6c9.1,0,9.2-9.8,9.2-17.9c0-8.1-0.1-17.9-9.2-17.9s-9.2,9.8-9.2,17.9C397.7,394.8,397.7,404.6,406.9,404.6z"/>
	<path class="st1" d="M431.4,403.7v-34h-6.6v-1.9h14.5v7.3h0.2c2.4-5.3,7-8.2,13.4-8.2c7.6,0,11.4,3.2,11.4,10.9v26h6.1v1.9h-20.1
		v-1.9h6.1v-25.6c0-4.2-0.8-8.5-6.2-8.5c-7.2,0-10.8,6.8-10.8,14v20.1h6.1v1.9h-20.6v-1.9h6.5V403.7z"/>
	<path class="st1" d="M219.5,432.8c0,4-2.7,7-7.8,7c-5.2,0-7.9-3-7.9-7v-10.4h4.1v10.2c0,2.1,1.6,3.7,3.8,3.7s3.7-1.6,3.7-3.7v-10.3
		h4.1L219.5,432.8L219.5,432.8z"/>
	<path class="st1" d="M235.1,422.4h5.6l7.9,11.8h0.1v-11.8h4.1v17h-5.4l-8.1-12.1h-0.1v12.1h-4.1V422.4z"/>
	<path class="st1" d="M268.5,422.4h4.1v17h-4.1V422.4z"/>
	<path class="st1" d="M286.2,422.4h4.7l4.6,11.1h0.1l4.7-11.1h4.4l-7.7,17h-3.3L286.2,422.4z"/>
	<path class="st1" d="M316.9,422.4h12.7v3.4H321v3.2h8.1v3.4H321v3.4h9v3.4h-13.1V422.4z"/>
	<path class="st1" d="M345.5,422.4h7.2c3.8,0,7,1.2,7,5.1c0,2.4-1.4,4.2-4,4.6l4.7,7.2h-4.9l-3.9-6.8h-2v6.8h-4.1L345.5,422.4
		L345.5,422.4z M349.6,429.4h2.4c1.5,0,3.5,0,3.5-1.9c0-1.7-1.7-2-3.2-2h-2.7L349.6,429.4L349.6,429.4z"/>
	<path class="st1" d="M384.8,426.5c-0.7-0.8-2-1.1-3-1.1c-1.2,0-2.8,0.5-2.8,1.7c0,3.1,8.6,1.1,8.6,7c0,3.8-3.3,5.6-7.2,5.6
		c-2.4,0-4.5-0.6-6.3-2.1l2.9-2.9c0.8,1,2.2,1.6,3.6,1.6c1.3,0,2.8-0.6,2.8-1.8c0-3.1-8.7-1.4-8.7-7.1c0-3.6,3.4-5.5,7.1-5.5
		c2.1,0,4.1,0.5,5.7,1.8L384.8,426.5z"/>
	<path class="st1" d="M402.9,422.4h4.1v17h-4.1V422.4z"/>
	<path class="st1" d="M426.1,425.7h-5.3v-3.3h14.8v3.3h-5.3v13.6h-4.1v-13.6H426.1z"/>
	<path class="st1" d="M453.7,432.1l-7-9.7h5.1l4,6.3l4.2-6.3h4.9l-7,9.7v7.2h-4.1v-7.2H453.7z"/>
</g>
</svg>
