<?xml version="1.0" encoding="utf-8"?>
<!-- Generator: Adobe Illustrator 19.0.0, SVG Export Plug-In . SVG Version: 6.00 Build 0)  -->
<svg version="1.1" id="Layer_1" xmlns="http://www.w3.org/2000/svg" xmlns:xlink="http://www.w3.org/1999/xlink" x="0px" y="0px"
	 viewBox="0 0 585.6 254.4" style="enable-background:new 0 0 585.6 254.4;" xml:space="preserve">
<style type="text/css">
	.st0{fill:#F26869;}
	.st1{fill:#FFFFFF;}
</style>
<rect x="0" y="0" class="st0" width="585.6" height="254.4"/>
<g>
	<path class="st1" d="M165.6,128.4l-0.9-0.3l-0.2-1l-1.6-0.6c-4.4-1.5-8.9-2.8-13.6-3.2c-3-0.3-6.1-0.1-8.4,1.4
		c-2.3-1.5-5.3-1.7-8.4-1.4c-4.7,0.4-9.2,1.7-13.6,3.2l-1.6,0.6l-0.2,1l-0.9,0.3l-5.3,22.1c3-0.5,9.1-1.4,12.5-1.8
		c4.2-0.5,7.8-0.7,12.6-0.5c0,0.2-0.1,0.4,0,0.5c0.6,0.5,1.7,0.5,2.6,0.6c0.9,0,1.3,0.1,2.3,0.1c0.9,0,1.3,0,2.3-0.1
		c0.9-0.1,2,0,2.6-0.6c0.1-0.2,0.1-0.4,0-0.5c4.8-0.2,8.4,0,12.6,0.5c3.4,0.4,9.5,1.2,12.5,1.8L165.6,128.4z M140.2,145
		c-2.5-1.3-5.5-1.5-8.5-1.3c-6.4,0.4-12.1,1.8-18.1,3.9l4.6-20c4.6-1.8,9.5-3.2,14.5-3.6c3.3-0.2,6.1,0.2,7.7,1.4L140.2,145z
		 M149.9,143.7c-3-0.2-6.1,0-8.5,1.3l-0.1-19.6c1.6-1.2,4.5-1.6,7.8-1.4c5,0.4,9.9,1.8,14.5,3.6l4.5,20
		C162,145.5,156.3,144.1,149.9,143.7z"/>
	<path class="st1" d="M142.2,78.6l5.2,10.5l0,0c0,0,0.1,0.2,0.3,0.5c0.2-0.1,0.3-0.1,0.5-0.2c0.2-0.1,8.8-5,8.8-5
		s-3.8,18.6-4.2,20.4c1.7-1.8,8.5-8.9,8.5-8.9s2.9,5.5,3.6,6.8c0.1,0,0.9-0.2,0.9-0.2l-0.5,0.1l10.4-2.9l-3.3,11.7
		c0,0,0,0.1-0.1,0.1l0,0c0,0,0,0.1,0,0.1c0,0,0,0,0,0s-0.3,0.8-0.4,1.2c0,0.2-0.2,0.5-0.2,0.6c0.6,0.3,5.3,2.8,5.3,2.8
		s-6.1,5.4-11.1,9.8c0,0.2,0.1,0.5,0.1,0.6c0.1,0,0.9,0.3,0.9,0.3l5.6,23.6c3.8-6.8,5.6-14.4,5.6-22.5c0,0,0-32.9-0.1-44.5
		C167.5,80.5,153.6,78.9,142.2,78.6"/>
	<path class="st1" d="M140.8,175.9c1-0.4,2.4-0.7,3.4-1.1c9.7-4,18.4-10.2,25.2-19c0.8-1.1,1.5-2.1,2.2-3.3l-1.1-0.2
		c-3.1-0.6-9.2-1.4-12.4-1.8c-0.3,0-0.7-0.1-1-0.1c-0.1,0-0.1,0-0.2,0c-0.3,0-0.7-0.1-1-0.1c0,0,0,0,0,0c-0.3,0-0.7-0.1-1-0.1
		c0,0-0.1,0-0.1,0c-0.3,0-0.7,0-1-0.1l0,0c-2.2-0.1-4.3-0.2-6.7-0.1c0,0-0.1,0.1-0.1,0.1c-0.9,0.9-2.3,1-3.2,1l-0.5,0l-0.5,0l-1.8,0
		l-2.3-0.1l-0.6,0c-1-0.1-2.3-0.1-3.2-1c0,0,0,0-0.1-0.1c-2,0-3.9,0-5.7,0.1c-0.4,0-0.9,0-1.3,0.1c0,0,0,0,0,0c-0.2,0-0.4,0-0.6,0
		c0,0,0,0,0,0c-0.2,0-0.4,0-0.6,0c0,0-0.1,0-0.1,0c-0.2,0-0.4,0-0.6,0c-0.1,0-0.1,0-0.2,0c-0.2,0-0.3,0-0.5,0c-0.1,0-0.2,0-0.3,0
		c-0.1,0-0.3,0-0.4,0c-0.2,0-0.5,0.1-0.7,0.1c-3.2,0.3-9.3,1.2-12.4,1.8l-1.1,0.2c0.7,1.1,1.4,2.2,2.2,3.3
		c6.8,8.8,15.5,14.9,25.2,19C138.4,175.2,139.8,175.5,140.8,175.9"/>
	<path class="st1" d="M139.4,78.5c-11.4-0.1-25.3,2-35.9,5c-0.1,11.6-0.1,44.5-0.1,44.5c-0.1,8.1,1.8,15.7,5.5,22.5l5.7-23.6
		c0,0,0.8-0.3,0.9-0.3c0-0.1,0.1-0.3,0.1-0.5c-5-4.4-11.2-9.9-11.2-9.9s4.7-2.4,5.3-2.8c0-0.1-0.2-0.5-0.2-0.7
		c-0.1-0.3-0.2-0.7-0.3-0.9c0,0,0,0,0,0l-3.4-12.1l10.4,2.9l-0.5-0.1c0.1,0,0.8,0.1,0.9,0.2c0.7-1.3,3.6-6.8,3.6-6.8
		s6.8,7.2,8.5,8.9c-0.4-1.8-4.2-20.4-4.2-20.4s8.6,4.9,8.8,5c0.2,0.1,0.3,0.1,0.5,0.2c0.2-0.3,0.3-0.5,0.3-0.5l0,0l4.7-9.4
		L139.4,78.5"/>
	<path class="st1" d="M112,113.9c0,0.6-0.6,1.2-0.9,1.4l-2.9,1.5l9.3,8.2l0.6-0.2l0,0c5.3-1.9,9.8-2.9,14.1-3.3
		c3.5-0.3,6.3,0,8.5,1.2c2.2-1.1,5-1.5,8.5-1.2c4.2,0.4,8.7,1.5,14,3.3l0,0l0.6,0.2l9.2-8.2l-2.9-1.5c-0.3-0.2-0.8-0.8-0.9-1.4
		c0-0.2,0-0.1,0-0.1c0,0,0,0,0,0c0.1-0.3,0-0.3,0.3-1.1c0,0,0.5-1.7,0.6-1.7l2.2-7.9l-6.6,1.8c-0.4,0-0.7,0.1-1,0.2
		c-0.6,0.1-1.1,0.2-1.5-0.2l-2.6-5l-7.5,7.9l-0.6,0.6c-1.3,1-3-0.1-2.3-2.8l3.4-16.6l-4.6,2.6c-0.6,0.3-1.2,0.5-2,0.7
		c-0.3,0.1-0.6-0.1-0.8-0.3c-0.3-0.5-0.9-1.5-1.1-1.9l-4.6-9.3l-4.6,9.3c-0.2,0.4-0.7,1.3-1.1,1.9c-0.2,0.2-0.5,0.4-0.8,0.3
		c-0.9-0.3-1.4-0.5-2-0.7l-4.6-2.6l3.4,16.6c0.8,2.7-1,3.8-2.3,2.8l-0.6-0.6l-7.5-7.9l-2.6,5c-0.4,0.4-0.9,0.3-1.5,0.2
		c-0.4-0.1-0.7-0.2-1-0.2L109,103l2.2,7.9c0,0,0.6,1.7,0.6,1.7c0.3,0.9,0.2,0.8,0.3,1.1c0,0,0,0,0,0
		C112.1,113.7,112,113.7,112,113.9z M146.4,91.9C146.2,91.7,146.2,91.5,146.4,91.9L146.4,91.9z M135.1,91.9
		C135.4,91.6,135.3,91.7,135.1,91.9L135.1,91.9z"/>
	<g>
		<path class="st1" d="M137.7,130.3c-2.6-1.1-5.7-0.8-8.4-0.3c-3.3,0.6-4.8,1-8.4,2.2l0.2-0.9c0,0,4.5-1.8,10.7-2.5
			c0,0,3.5-0.4,6,0.6V130.3L137.7,130.3z"/>
		<path class="st1" d="M137.7,134.2c-2.6-1.1-5.7-0.8-8.4-0.3c-3.3,0.6-5.6,0.9-9.3,2.2l0.2-0.9c0,0,5.5-1.7,11.6-2.5
			c0,0,3.5-0.4,6,0.6V134.2L137.7,134.2z"/>
		<path class="st1" d="M137.7,138.3c-2.6-1.1-5.7-0.8-8.4-0.3c-3.3,0.6-6.6,1.4-10.4,2.7l0.2-0.9c0,0,6.5-2.3,12.6-3
			c0,0,3.5-0.4,6,0.6V138.3L137.7,138.3z"/>
		<path class="st1" d="M143.8,130.3c2.6-1.1,5.7-0.8,8.4-0.3c3.3,0.6,4.8,1,8.4,2.2l-0.2-0.9c0,0-4.5-1.8-10.7-2.5
			c0,0-3.5-0.4-6,0.6V130.3L143.8,130.3z"/>
		<path class="st1" d="M143.8,134.2c2.6-1.1,5.7-0.8,8.4-0.3c3.3,0.6,5.6,0.9,9.3,2.2l-0.2-0.9c0,0-5.5-1.7-11.6-2.5
			c0,0-3.5-0.4-6,0.6V134.2L143.8,134.2z"/>
		<path class="st1" d="M143.8,138.3c2.6-1.1,5.7-0.8,8.4-0.3c3.3,0.6,6.6,1.4,10.4,2.7l-0.2-0.9c0,0-6.5-2.3-12.6-3
			c0,0-3.5-0.4-6,0.6V138.3L143.8,138.3z"/>
	</g>
</g>
<g>
	<path class="st1" d="M254,98.8h-2.3c-0.3-11.4-4.9-16.6-15.5-16.6c-15.2,0-17.3,13.2-17.3,26.1c0,10.9,1.2,26.2,16,26.2
		c10.7,0,16.4-7.4,16.7-18.4h2.3v15.3c-7,3.8-13,5.5-19.2,5.5c-16.8,0-26-12-26-28.6c0-16.5,10.3-28.5,27-28.5
		c6.1,0,12.6,1.9,18.2,4.5V98.8z"/>
	<path class="st1" d="M271.6,113.7c3.2-0.8,5.6-1.5,8.5-2.5V108c0-5.3-0.9-8.8-6-8.8c-3.9,0-6.2,1.2-6.2,6.3c0,3-1.2,4.4-3.9,4.4
		c-2,0-3.8-0.9-3.8-3.3c0-7.4,7.5-9.3,13.7-9.3c11.8,0,14.1,4.9,14.1,11.3v19.6c0,5.9,1.8,5.9,6.1,5.9v1.9h-5.9
		c-4.3,0-7.3-0.4-8.6-5c-3,4.6-6.8,5.9-11.9,5.9c-8,0-10.6-4.2-10.6-11.2c0-6.4,3.3-9.4,9.8-11L271.6,113.7z M272,115.8
		c-4.6,1.4-6.1,3.1-6.1,9.9c0,4.7,0.8,8.9,5,8.9c6.7,0,9.1-8.5,9.1-13.8v-7.4L272,115.8z"/>
	<path class="st1" d="M299.5,100.1h-6.6v-1.9h14.5v8.9h0.2c1.6-4.5,4.9-9.8,10.8-9.8c4.6,0,7,2.9,7,7.4c0,3.1-1.2,5.2-4,5.2
		c-2.1,0-3.9-1.5-3.9-3.9c0-1.1,0.4-2.9,0.4-3.9c0-1.1-0.8-1.9-1.9-1.9c-4,0-8.6,8.8-8.6,17.2v16.9h6.4v1.9H293v-1.9h6.5V100.1z"/>
	<path class="st1" d="M323.1,80.8h14.5v53.3h6.6v1.9h-21.2v-1.9h6.6V82.7h-6.6V80.8z"/>
	<path class="st1" d="M351.3,114.7v0.6c0,10.8,1.5,19.2,11.4,19.2c7,0,10.6-4.3,12.6-9.9l1.7,0.6c-3.3,9-8.6,11.7-17.1,11.7
		c-11.6,0-17.5-9-17.5-19.9c0-10.4,6.7-19.9,18-19.9c9.9,0,16.6,7.1,16.6,17.5H351.3z M367.8,112.3c0-5.6-0.3-13.1-8.2-13.1
		c-6.6,0-8.3,8.3-8.3,13.1H367.8z"/>
	<path class="st1" d="M377.2,98.1h5.3V87.9h7.9v10.3h8.6v1.9h-8.6V127c0,4.6,0.9,6.7,4.1,6.7c2.9,0,4.2-2.2,5.4-4.6l1.8,0.8
		l-0.7,1.4c-1.5,2.8-4.2,5.3-9.7,5.3c-8,0-8.7-4.6-8.7-9.5v-26.9h-5.3V98.1z"/>
	<path class="st1" d="M418.9,97.2c13.8,0,18,12.1,18,19.9c0,7.8-4.2,19.9-18,19.9c-13.8,0-18-12.1-18-19.9
		C400.9,109.3,405.1,97.2,418.9,97.2z M418.9,135c9.1,0,9.2-9.8,9.2-17.9c0-8.1-0.1-17.9-9.2-17.9c-9.1,0-9.2,9.8-9.2,17.9
		C409.7,125.2,409.7,135,418.9,135z"/>
	<path class="st1" d="M443.4,134.1v-34h-6.6v-1.9h14.5v7.3h0.2c2.4-5.3,7-8.2,13.4-8.2c7.6,0,11.4,3.2,11.4,10.9v26h6.1v1.9h-20.1
		v-1.9h6.1v-25.6c0-4.2-0.8-8.5-6.2-8.5c-7.2,0-10.8,6.8-10.8,14v20.1h6.1v1.9h-20.6v-1.9H443.4z"/>
	<path class="st1" d="M231.5,163.2c0,4-2.7,7-7.8,7c-5.2,0-7.9-3-7.9-7v-10.4h4.1V163c0,2.1,1.6,3.7,3.8,3.7c2.2,0,3.7-1.6,3.7-3.7
		v-10.3h4.1V163.2z"/>
	<path class="st1" d="M247.1,152.8h5.6l7.9,11.8h0.1v-11.8h4.1v17h-5.4l-8.1-12.1h-0.1v12.1h-4.1V152.8z"/>
	<path class="st1" d="M280.5,152.8h4.1v17h-4.1V152.8z"/>
	<path class="st1" d="M298.2,152.8h4.7l4.6,11.1h0.1l4.7-11.1h4.4l-7.7,17h-3.3L298.2,152.8z"/>
	<path class="st1" d="M328.9,152.8h12.7v3.4H333v3.2h8.1v3.4H333v3.4h9v3.4h-13.1V152.8z"/>
	<path class="st1" d="M357.5,152.8h7.2c3.8,0,7,1.2,7,5.1c0,2.4-1.4,4.2-4,4.6l4.7,7.2h-4.9l-3.9-6.8h-2v6.8h-4.1V152.8z
		 M361.6,159.8h2.4c1.5,0,3.5,0,3.5-1.9c0-1.7-1.7-2-3.2-2h-2.7V159.8z"/>
	<path class="st1" d="M396.8,156.9c-0.7-0.8-2-1.1-3-1.1c-1.2,0-2.8,0.5-2.8,1.7c0,3.1,8.6,1.1,8.6,7c0,3.8-3.3,5.6-7.2,5.6
		c-2.4,0-4.5-0.6-6.3-2.1l2.9-2.9c0.8,1,2.2,1.6,3.6,1.6c1.3,0,2.8-0.6,2.8-1.8c0-3.1-8.7-1.4-8.7-7.1c0-3.6,3.4-5.5,7.1-5.5
		c2.1,0,4.1,0.5,5.7,1.8L396.8,156.9z"/>
	<path class="st1" d="M414.9,152.8h4.1v17h-4.1V152.8z"/>
	<path class="st1" d="M438.1,156.1h-5.3v-3.3h14.8v3.3h-5.3v13.6h-4.1V156.1z"/>
	<path class="st1" d="M465.7,162.5l-7-9.7h5.1l4,6.3l4.2-6.3h4.9l-7,9.7v7.2h-4.1V162.5z"/>
</g>
</svg>
