<?xml version="1.0" encoding="utf-8"?>
<!-- Generator: Adobe Illustrator 19.0.0, SVG Export Plug-In . SVG Version: 6.00 Build 0)  -->
<svg version="1.1" id="Layer_1" xmlns="http://www.w3.org/2000/svg" xmlns:xlink="http://www.w3.org/1999/xlink" x="0px" y="0px"
	 viewBox="0 0 585.6 254.4" style="enable-background:new 0 0 585.6 254.4;" xml:space="preserve">
<style type="text/css">
	.st0{fill:#00BCEB;}
	.st1{fill:#FFFFFF;}
</style>
<rect id="XMLID_62_" class="st0" width="585.6" height="254.4"/>
<g id="XMLID_2_">
	<g id="XMLID_12_">
		<g id="XMLID_13_">
			<rect id="XMLID_20_" x="251.2" y="143.3" class="st1" width="8.2" height="32.7"/>
			<path id="XMLID_19_" class="st1" d="M325.9,152.6c-0.3-0.2-3-1.7-6.9-1.7c-5.3,0-9,3.7-9,8.7c0,4.9,3.5,8.7,9,8.7
				c3.9,0,6.6-1.5,6.9-1.7v8.8c-1,0.3-3.8,1.2-7.5,1.2c-9.3,0-17.4-6.4-17.4-16.9c0-9.8,7.4-16.9,17.4-16.9c3.9,0,6.7,0.9,7.5,1.2
				V152.6z"/>
			<path id="XMLID_18_" class="st1" d="M239.9,152.6c-0.3-0.2-3-1.7-6.9-1.7c-5.3,0-9,3.7-9,8.7c0,4.9,3.5,8.7,9,8.7
				c3.9,0,6.6-1.5,6.9-1.7v8.8c-1,0.3-3.8,1.2-7.5,1.2c-9.3,0-17.4-6.4-17.4-16.9c0-9.8,7.4-16.9,17.4-16.9c3.9,0,6.7,0.9,7.5,1.2
				V152.6z"/>
			<path id="XMLID_15_" class="st1" d="M369.1,159.6c0,9.3-7.2,16.9-17.3,16.9c-10,0-17.2-7.6-17.2-16.9c0-9.3,7.2-16.9,17.2-16.9
				C361.8,142.7,369.1,150.3,369.1,159.6z M351.8,151c-4.9,0-8.5,3.8-8.5,8.6c0,4.8,3.6,8.6,8.5,8.6c4.9,0,8.5-3.8,8.5-8.6
				C360.3,154.9,356.7,151,351.8,151z"/>
			<path id="XMLID_14_" class="st1" d="M290.7,150.7c-0.1,0-3.6-1-6.4-1c-3.3,0-5.1,1.1-5.1,2.7c0,2,2.4,2.7,3.8,3.1l2.3,0.7
				c5.3,1.7,7.8,5.4,7.8,9.3c0,8.2-7.2,11-13.5,11c-4.4,0-8.5-0.8-8.9-0.9v-7.5c0.7,0.2,4.2,1.2,7.8,1.2c4.1,0,6-1.2,6-3
				c0-1.7-1.6-2.6-3.7-3.3c-0.5-0.2-1.2-0.4-1.8-0.6c-4.6-1.5-8.4-4.1-8.4-9.6c0-6.1,4.6-10.2,12.2-10.2c4,0,7.8,1,8,1V150.7z"/>
		</g>
	</g>
	<path id="XMLID_11_" class="st1" d="M206.2,108.2c0-2.3-1.8-4.1-4.1-4.1c-2.3,0-4.1,1.8-4.1,4.1v8.6c0,2.3,1.8,4.1,4.1,4.1
		c2.3,0,4.1-1.8,4.1-4.1V108.2z"/>
	<path id="XMLID_10_" class="st1" d="M228.7,96.9c0-2.3-1.8-4.1-4.1-4.1s-4.1,1.8-4.1,4.1v19.8c0,2.3,1.8,4.1,4.1,4.1
		s4.1-1.8,4.1-4.1V96.9z"/>
	<path id="XMLID_9_" class="st1" d="M251.2,81.5c0-2.3-1.8-4.1-4.1-4.1c-2.3,0-4.1,1.8-4.1,4.1v43.4c0,2.3,1.8,4.1,4.1,4.1
		c2.3,0,4.1-1.8,4.1-4.1V81.5z"/>
	<path id="XMLID_8_" class="st1" d="M273.6,96.9c0-2.3-1.8-4.1-4.1-4.1c-2.3,0-4.1,1.8-4.1,4.1v19.8c0,2.3,1.8,4.1,4.1,4.1
		c2.3,0,4.1-1.8,4.1-4.1V96.9z"/>
	<path id="XMLID_7_" class="st1" d="M296.1,108.2c0-2.3-1.8-4.1-4.1-4.1c-2.3,0-4.1,1.8-4.1,4.1v8.6c0,2.3,1.8,4.1,4.1,4.1
		c2.2,0,4.1-1.8,4.1-4.1V108.2z"/>
	<path id="XMLID_6_" class="st1" d="M318.6,96.9c0-2.3-1.8-4.1-4.1-4.1c-2.2,0-4.1,1.8-4.1,4.1v19.8c0,2.3,1.8,4.1,4.1,4.1
		c2.3,0,4.1-1.8,4.1-4.1V96.9z"/>
	<path id="XMLID_5_" class="st1" d="M341.1,81.5c0-2.3-1.8-4.1-4.1-4.1c-2.3,0-4.1,1.8-4.1,4.1v43.4c0,2.3,1.8,4.1,4.1,4.1
		c2.3,0,4.1-1.8,4.1-4.1V81.5z"/>
	<path id="XMLID_4_" class="st1" d="M363.5,96.9c0-2.3-1.8-4.1-4.1-4.1c-2.3,0-4.1,1.8-4.1,4.1v19.8c0,2.3,1.8,4.1,4.1,4.1
		c2.3,0,4.1-1.8,4.1-4.1V96.9z"/>
	<path id="XMLID_3_" class="st1" d="M386,108.2c0-2.3-1.8-4.1-4.1-4.1c-2.3,0-4.1,1.8-4.1,4.1v8.6c0,2.3,1.8,4.1,4.1,4.1
		c2.2,0,4.1-1.8,4.1-4.1V108.2z"/>
</g>
</svg>
