<?xml version="1.0" encoding="utf-8"?>
<!-- Generator: Adobe Illustrator 19.0.0, SVG Export Plug-In . SVG Version: 6.00 Build 0)  -->
<svg version="1.1" id="Layer_1" xmlns="http://www.w3.org/2000/svg" xmlns:xlink="http://www.w3.org/1999/xlink" x="0px" y="0px"
	 viewBox="-12 310.6 585.6 171.4" style="enable-background:new -12 310.6 585.6 171.4;" xml:space="preserve">
<style type="text/css">
	.st0{fill:#00BCEB;}
	.st1{fill:#FFFFFF;}
</style>
<rect id="XMLID_62_" x="-12" y="310.6" class="st0" width="585.6" height="171.4"/>
<g id="XMLID_2_">
	<g id="XMLID_12_">
		<g id="XMLID_13_">
			<rect id="XMLID_20_" x="256.4" y="406.6" class="st1" width="4.9" height="19.6"/>
			<path id="XMLID_19_" class="st1" d="M301.1,412.1c-0.2-0.1-1.8-1-4.1-1c-3.2,0-5.4,2.2-5.4,5.2c0,2.9,2.1,5.2,5.4,5.2
				c2.3,0,3.9-0.9,4.1-1v5.3c-0.6,0.2-2.3,0.7-4.5,0.7c-5.6,0-10.4-3.8-10.4-10.1c0-5.9,4.4-10.1,10.4-10.1c2.3,0,4,0.5,4.5,0.7
				V412.1z"/>
			<path id="XMLID_18_" class="st1" d="M249.6,412.1c-0.2-0.1-1.8-1-4.1-1c-3.2,0-5.4,2.2-5.4,5.2c0,2.9,2.1,5.2,5.4,5.2
				c2.3,0,3.9-0.9,4.1-1v5.3c-0.6,0.2-2.3,0.7-4.5,0.7c-5.6,0-10.4-3.8-10.4-10.1c0-5.9,4.4-10.1,10.4-10.1c2.3,0,4,0.5,4.5,0.7
				V412.1z"/>
			<path id="XMLID_15_" class="st1" d="M326.9,416.3c0,5.6-4.3,10.1-10.4,10.1c-6,0-10.3-4.5-10.3-10.1c0-5.6,4.3-10.1,10.3-10.1
				C322.6,406.2,326.9,410.7,326.9,416.3z M316.6,411.2c-2.9,0-5.1,2.3-5.1,5.1s2.2,5.1,5.1,5.1s5.1-2.3,5.1-5.1
				C321.7,413.5,319.5,411.2,316.6,411.2z"/>
			<path id="XMLID_14_" class="st1" d="M280,411c-0.1,0-2.2-0.6-3.8-0.6c-2,0-3.1,0.7-3.1,1.6c0,1.2,1.4,1.6,2.3,1.9l1.4,0.4
				c3.2,1,4.7,3.2,4.7,5.6c0,4.9-4.3,6.6-8.1,6.6c-2.6,0-5.1-0.5-5.3-0.5v-4.5c0.4,0.1,2.5,0.7,4.7,0.7c2.5,0,3.6-0.7,3.6-1.8
				c0-1-1-1.6-2.2-2c-0.3-0.1-0.7-0.2-1.1-0.4c-2.8-0.9-5-2.5-5-5.7c0-3.7,2.8-6.1,7.3-6.1c2.4,0,4.7,0.6,4.8,0.6L280,411L280,411z"
				/>
		</g>
	</g>
	<path id="XMLID_11_" class="st1" d="M229.5,385.6c0-1.4-1.1-2.5-2.5-2.5s-2.5,1.1-2.5,2.5v5.1c0,1.4,1.1,2.5,2.5,2.5
		s2.5-1.1,2.5-2.5V385.6z"/>
	<path id="XMLID_10_" class="st1" d="M242.9,378.8c0-1.4-1.1-2.5-2.5-2.5c-1.4,0-2.5,1.1-2.5,2.5v11.8c0,1.4,1.1,2.5,2.5,2.5
		c1.4,0,2.5-1.1,2.5-2.5V378.8z"/>
	<path id="XMLID_9_" class="st1" d="M256.4,369.6c0-1.4-1.1-2.5-2.5-2.5c-1.4,0-2.5,1.1-2.5,2.5v26c0,1.4,1.1,2.5,2.5,2.5
		c1.4,0,2.5-1.1,2.5-2.5V369.6z"/>
	<path id="XMLID_8_" class="st1" d="M269.8,378.8c0-1.4-1.1-2.5-2.5-2.5c-1.4,0-2.5,1.1-2.5,2.5v11.8c0,1.4,1.1,2.5,2.5,2.5
		c1.4,0,2.5-1.1,2.5-2.5V378.8z"/>
	<path id="XMLID_7_" class="st1" d="M283.3,385.6c0-1.4-1.1-2.5-2.5-2.5c-1.4,0-2.5,1.1-2.5,2.5v5.1c0,1.4,1.1,2.5,2.5,2.5
		c1.3,0,2.5-1.1,2.5-2.5V385.6z"/>
	<path id="XMLID_6_" class="st1" d="M296.7,378.8c0-1.4-1.1-2.5-2.5-2.5c-1.3,0-2.5,1.1-2.5,2.5v11.8c0,1.4,1.1,2.5,2.5,2.5
		c1.4,0,2.5-1.1,2.5-2.5V378.8z"/>
	<path id="XMLID_5_" class="st1" d="M310.2,369.6c0-1.4-1.1-2.5-2.5-2.5c-1.4,0-2.5,1.1-2.5,2.5v26c0,1.4,1.1,2.5,2.5,2.5
		s2.5-1.1,2.5-2.5V369.6z"/>
	<path id="XMLID_4_" class="st1" d="M323.6,378.8c0-1.4-1.1-2.5-2.5-2.5s-2.5,1.1-2.5,2.5v11.8c0,1.4,1.1,2.5,2.5,2.5
		c1.4,0,2.5-1.1,2.5-2.5V378.8z"/>
	<path id="XMLID_3_" class="st1" d="M337,385.6c0-1.4-1.1-2.5-2.5-2.5s-2.5,1.1-2.5,2.5v5.1c0,1.4,1.1,2.5,2.5,2.5
		c1.3,0,2.5-1.1,2.5-2.5V385.6z"/>
</g>
</svg>
