<?xml version="1.0" encoding="utf-8"?>
<!-- Generator: Adobe Illustrator 19.0.0, SVG Export Plug-In . SVG Version: 6.00 Build 0)  -->
<svg version="1.1" id="Layer_1" xmlns="http://www.w3.org/2000/svg" xmlns:xlink="http://www.w3.org/1999/xlink" x="0px" y="0px"
	 viewBox="0 0 500 500" style="enable-background:new 0 0 500 500;" xml:space="preserve">
<style type="text/css">
	.st0{fill:#ED1C24;}
</style>
<g id="XMLID_16_">
	<path id="XMLID_51_" d="M118.8,230.3c-7,22.3-24.3,27.9-32.9,27.8c-18.7-0.3-36-15.4-36.6-49.7c-0.8-43.8,48.7-72.4,67.4-16
		c0.4,1.2,1.3,1.5,1.6,0.5l-2.1-33.6c-0.3-0.8-1.6-0.8-1.6,0c-0.2,7.3-12.9,1.2-17.5,0.1C57.6,150.4,31,182,31,208.3
		c0,34.1,22.5,52.7,51.5,52.7c23.1,0,34.8-14.7,38.6-30.7C121.6,228.3,119.3,228.7,118.8,230.3z"/>
	<path id="XMLID_48_" d="M185.1,253.9c-3,7.1-13.4,3.5-13.4-7.1V208c0-12.6-27.6-14-37.8-9.7c-20.7,9.8-0.2,22,3.6,8.3
		c2.4-6.8,6.1-8.2,10.5-8.2c4.2,0,11.1,1.2,11.1,14.5c0,5.4-1.5,13-14.8,15c-42.6,0.8-19.9,51.8,15.7,25.9c6.4,10.1,25,8.9,26.8,1.4
		C187.6,253.6,186,252.9,185.1,253.9z M159.5,243.9c0,7.5-7.5,15.2-16,14.1c-8.9-0.5-20.1-19.1,16-32.3V243.9z"/>
	<path id="XMLID_47_" d="M262.2,259.2c-7.2-2.8-8.2-8.2-8.2-9.9v-35.5c0-20.3-19.5-17.6-26.3-17.6c-8.6,0.1-17.7,5.5-18.7,7.9
		c-0.3-6.6-1.1-7.2-2.8-7.1l-17.3,2.3c-1.1,0.3-1.1,0.8,0.9,1.3c3.8,0.1,6.2,2.7,6.2,8.2v40.4c0,4.8-6.8,9.1-8.2,9.7
		c-3.2,1.3,1.6,1.1,1.6,1.1h28.3c0.9,0,3.9,0.3,0.1-1.5c-4.3-1.6-9-5.1-9-9.3c0-4.2,0-30.4,0-30.4c0-12.8,8.4-19.7,16.5-19.7
		c8.6,0,15.7,1.9,15.7,19.6v30.5c0,4.4-5.8,8.5-8.9,9.5c-2,0.5-2.8,1.2-1.1,1.2h30.2C263,260.1,263.7,259.6,262.2,259.2z"/>
	<path id="XMLID_44_" d="M402.4,259.1c-8.9-2.4-10.9-10.9-10.9-16.4l0.1-79.2c0-1.6-0.2-1.8-1.2-1.9l-18,0.4c-9.7,0-3.6,0.3,1.1,1.9
		c3.2,0.9,7.4,4,7.3,14.5v20.3c0,11.5,0.1-2.3-20.5-2.3c-23,0-32,18-32,33.9c0,18,13.9,31.2,31,31.2c9,0,16.3-1.2,19.2-6.3l-0.1,0.4
		c1.2,5.5,2.4,6.9,5.2,6.6l19.6-2.1C404.2,259.8,403.2,259.2,402.4,259.1z M361,258.2c-10.7,0-19.4-13-19.3-28.9
		c0-15.9,8.7-29.8,19.4-29.8c10.7,0,17.8,5.8,17.8,29.6C378.9,254.1,371.7,258.2,361,258.2z"/>
	<path id="XMLID_30_" d="M327.5,254c-3,7.1-13.4,3.5-13.4-7.1v-38.8c0-12.6-27.6-14-37.9-9.7c-20.7,9.8-0.1,22,3.6,8.3
		c2.4-6.8,6.1-8.2,10.5-8.2c4.2,0,11.1,1.2,11.1,14.5c0,5.4-1.5,13-14.8,15c-42.6,0.8-19.9,51.8,15.7,25.9c6.4,10.1,25,8.9,26.9,1.4
		C330,253.7,328.4,253,327.5,254z M301.3,244c0,7.5-7.5,15.2-16,14.1c-8.9-0.6-20.1-19.1,16-32.3V244z"/>
	<path id="XMLID_27_" d="M467,254.2c-2.9,7.1-13.4,3.5-13.4-7.1v-38.8c0-12.6-27.6-14-37.9-9.7c-20.7,9.8-0.2,22,3.6,8.3
		c2.4-6.8,6-8.2,10.5-8.2c4.2,0,11.2,1.2,11.1,14.5c0,5.4-1.5,13-14.8,15c-42.6,0.8-19.9,51.8,15.7,25.9c6.4,10.1,25,8.9,26.8,1.4
		C469.5,254,467.9,253.3,467,254.2z M440.8,244.3c0,7.5-7.5,15.2-16,14.1c-8.9-0.5-20.1-19.1,16-32.3V244.3z"/>
</g>
<g id="XMLID_7_">
	<g id="XMLID_13_">
		
			<rect id="XMLID_15_" x="395.4" y="169.8" transform="matrix(1.115888e-003 -1 1 1.115888e-003 232.7649 587.3925)" class="st0" width="30.1" height="14.8"/>
		<path id="XMLID_14_" class="st0" d="M410.4,177.2"/>
	</g>
	<g id="XMLID_10_">
		
			<rect id="XMLID_12_" x="442.9" y="169.9" transform="matrix(1.114265e-003 -1 1 1.114265e-003 280.0979 634.9943)" class="st0" width="30.1" height="14.8"/>
		<path id="XMLID_11_" class="st0" d="M457.9,177.3"/>
	</g>
	<g id="XMLID_8_">
		<path id="XMLID_9_" class="st0" d="M432.1,168.5l2.1-4.3l2.1,4.1c0.2,0.4,0.5,0.4,0.9,0.2l1.8-0.9l-1.2,5.8
			c-0.2,1.1,0.4,1.5,1.1,0.7l2.6-2.7l0.7,1.6c0.2,0.5,0.6,0.4,1,0.3l2.7-0.6L445,176v0.1c-0.1,0.4-0.3,0.8,0.2,1l0.9,0.5l-5.5,4.6
			c-0.6,0.6-0.4,0.8-0.2,1.4l0.5,1.6l-5.1-0.9c-0.6-0.2-1.1-0.2-1.1,0.3l0.2,5.8h-1.5l0.2-5.8c0-0.6-0.4-0.6-1.5-0.3l-4.7,0.9
			l0.6-1.6c0.2-0.6,0.3-1-0.2-1.4l-5.6-4.6l1-0.6c0.3-0.2,0.3-0.5,0.1-1l-1-3.4l2.7,0.6c0.8,0.2,1,0,1.1-0.4l0.8-1.5l2.7,3
			c0.5,0.6,1.1,0.2,0.9-0.6l-1.3-6.3l2,1.1C431.6,168.7,432,168.7,432.1,168.5"/>
	</g>
</g>
<g>
	<path d="M40.8,289.2H49v10.4h-1.6l-0.6-2.4c-1.5,1.4-3.1,2.9-6.9,2.9c-1.9,0-4.4-1.1-5.3-1.9c-2.5-2.2-3.4-5.5-3.4-8.3
		c0-2.8,0.9-6.1,3.4-8.3c0.9-0.8,3.3-2,6-2c1.5-0.1,3.1,0.2,4.2,0.8c3.3,1.8,3.8,4.2,4,5.4h-2.5c-0.1-1.6-2.1-4-5.7-4
		c-1.7,0-3.5,0.6-4.7,1.9c-1.3,1.4-2.2,3.7-2.1,6.1c-0.1,2.4,0.8,4.8,2.1,6.1c1.2,1.3,3,1.9,4.7,1.9c1.4,0,2.5-0.3,3.4-0.9
		c3-2,2.7-4.4,2.7-5.6h-5.9V289.2z"/>
	<path d="M58.1,300.2c-2.6,0-6.3-1.3-6.3-7.5c0-6.3,3.8-7.5,6.3-7.5c2.6,0,6.3,1.3,6.3,7.5C64.5,298.9,60.7,300.2,58.1,300.2z
		 M58.1,287.4c-2.9,0-4,3-4,5.3c0,2.3,1.1,5.3,4,5.3c3,0,4-3,4-5.3C62.2,290.3,61.1,287.4,58.1,287.4z"/>
	<path d="M70.9,299.6l-4.9-14h2.5l3.6,11.4l4.1-11.4h2.5l-5.4,14H70.9z"/>
	<path d="M82.5,293.4c-0.1,1,0,1.8,0.8,3c0.6,0.8,1.5,1.7,3.2,1.7c2.8,0,3.4-2.1,3.7-2.9h2.3c-0.2,0.9-0.4,1.8-1.3,2.8
		c-1,1.4-2.9,2.1-4.7,2.1c-1.8,0-3.7-0.7-4.9-2.2c-0.9-1.2-1.4-3.2-1.4-5.3c0-2.1,0.6-4.1,1.7-5.4c1.5-1.7,3.4-2.2,5.2-2.1
		c1.7,0.1,3.3,0.9,4.2,2c1.5,2.1,1.5,3.7,1.6,6.3H82.5z M90.3,291.5c0.1-1.3-0.7-2.9-1-3.3c-0.3-0.6-1.3-1.1-2.4-1.2
		c-1.1-0.1-2.3,0.2-3.1,1.2c-0.3,0.3-1.1,1.8-1.2,3.3H90.3z"/>
	<path d="M95.7,285.5H98v2.2H98c0.8-1.6,2.2-2.5,3.2-2.6h1.3v2.4c-0.8,0-1.5,0.1-2.1,0.3c-1.6,0.7-2.4,2-2.4,4.5v7.3h-2.2V285.5z"/>
	<path d="M106.9,285.5v1.8h0.1c0.4-0.7,1-1.3,1.6-1.5c0.7-0.5,1.8-0.7,2.8-0.6c1,0,2,0.2,2.3,0.4c0.7,0.4,1.9,1.1,2.2,3.2v10.9h-2.2
		v-9.8c0-1.7-1.3-2.6-2.8-2.6c-1.9,0-3.9,1.2-3.8,4.9v7.5h-2.2v-14H106.9z"/>
	<path d="M119.6,285.5h2.2v1.8h0.1c0.3-0.5,0.8-1.3,1.4-1.6c0.6-0.3,1.5-0.6,2.6-0.6c0.9,0,1.6,0,2.3,0.5c0.5,0.4,0.9,0.7,1.5,1.6
		c0.6-0.7,1-1.4,1.9-1.7c0.6-0.3,1.4-0.4,2.1-0.4c1,0,1.9,0.1,2.6,0.4c0.9,0.5,1.8,1.8,1.8,3v11h-2.2v-10c-0.3-1.8-1.3-2.4-2.7-2.4
		c-2,0-3,1.4-3.2,2.9v9.5h-2.2v-10.1c-0.2-1.8-1.5-2.3-2.6-2.3c-1.8,0-3.2,1.4-3.3,3.4v9h-2.2V285.5z"/>
	<path d="M143.4,293.4c-0.1,1,0,1.8,0.8,3c0.6,0.8,1.5,1.7,3.2,1.7c2.8,0,3.4-2.1,3.7-2.9h2.3c-0.2,0.9-0.4,1.8-1.3,2.8
		c-1,1.4-2.9,2.1-4.7,2.1c-1.8,0-3.7-0.7-4.9-2.2c-0.9-1.2-1.4-3.2-1.4-5.3c0-2.1,0.6-4.1,1.7-5.4c1.5-1.7,3.4-2.2,5.2-2.1
		c1.7,0.1,3.3,0.9,4.2,2c1.5,2.1,1.6,3.7,1.6,6.3H143.4z M151.2,291.5c0.1-1.3-0.7-2.9-1-3.3c-0.3-0.6-1.3-1.1-2.4-1.2
		c-1.1-0.1-2.3,0.2-3.1,1.2c-0.3,0.3-1.1,1.8-1.2,3.3H151.2z"/>
	<path d="M158.9,285.5v1.8h0.1c0.4-0.7,1-1.3,1.5-1.5c0.7-0.5,1.8-0.7,2.8-0.6c1,0,2,0.2,2.3,0.4c0.7,0.4,1.9,1.1,2.2,3.2v10.9h-2.2
		v-9.8c0-1.7-1.3-2.6-2.8-2.6c-1.9,0-3.9,1.2-3.8,4.9v7.5h-2.2v-14H158.9z"/>
	<path d="M174.2,285.5h2.2v2.1h-2.2v9.7c0,0.9,1,0.9,2.2,0.7v2c-0.9,0.2-1.6,0.2-2.4,0.2c-1.5-0.2-2-1.4-2-2v-10.6h-2v-2.1h2v-3.8
		h2.2V285.5z"/>
	<path d="M37.3,326.9c-2.6,0-6.3-1.3-6.3-7.5c0-6.3,3.8-7.5,6.3-7.5c2.6,0,6.3,1.3,6.3,7.5C43.7,325.6,39.9,326.9,37.3,326.9z
		 M37.3,314.1c-2.9,0-4,3-4,5.3c0,2.3,1.1,5.3,4,5.3c3,0,4-3,4-5.3C41.4,317.1,40.3,314.1,37.3,314.1z"/>
	<path d="M47.3,314.3h-1.9v-2.1h1.9v-2.4c0-2.3,2-3,2.2-3.1c0.7-0.1,1.4-0.1,2.3,0v1.9c-1.4-0.2-2.3,0-2.3,1.5v2.1h2.2v2.1h-2.2v12
		h-2.2V314.3z"/>
	<path d="M74.9,312.8c-0.9-2.5-2.5-4.1-5.2-4.1c-1.6,0-3.1,0.6-4.2,1.9c-1.1,1.4-1.9,3.7-1.9,6.1c-0.1,2.4,0.7,4.7,1.9,6.1
		c1.1,1.3,2.6,1.9,4.2,1.9c2.9,0,4.6-1.8,5.6-5.5h2.6c-0.8,4.5-3.9,7.8-8.3,7.7c-2.4,0-4.6-1.2-5.4-2c-2.3-2.2-3.1-5.4-3.1-8.2
		c0-2.8,0.8-6,3.1-8.2c0.8-0.8,3-2,5.4-2c4.1-0.1,6.8,2.4,7.9,6.3H74.9z"/>
	<path d="M91.8,324.1c0,0.4,0.5,0.8,1.1,0.8c0.2,0,0.3,0,0.5-0.1v1.8c-0.5,0.2-1,0.2-1.7,0.2c-1,0-2-1.1-2.1-2c-1.1,0.8-2.6,2-4.5,2
		c-3.1,0-5.1-1.6-4.9-4.4c0.2-2.3,1.5-3.2,2.9-3.7c2.5-0.7,3.8-0.5,5.2-0.8c0.3-0.1,1.1-0.3,1.1-1.1v-1.7c-0.2-1-2.1-1.4-3.6-1.4
		c-2.6,0-2.8,1.9-2.9,2.6h-2.1l0.1-1.2c0.2-0.8,0.9-2.1,2.3-2.8c0.7-0.3,1.6-0.6,2.9-0.6c0.7,0,1.5,0,2.4,0.2
		c1.8,0.4,3.2,1.3,3.3,2.7V324.1z M89.4,319.4c-1.8,0.7-4.3,0.7-5.6,1.3c-0.4,0.2-1.3,0.9-1.3,1.9c-0.1,1.7,1.2,2.4,2.5,2.4
		c3,0.1,4.5-2.3,4.5-2.8V319.4z"/>
	<path d="M98,312.3v1.8h0.1c0.4-0.7,1-1.3,1.6-1.5c0.7-0.5,1.8-0.7,2.8-0.6c1,0,2,0.2,2.3,0.4c0.7,0.4,1.9,1.1,2.2,3.2v10.9h-2.2
		v-9.8c0-1.7-1.3-2.6-2.8-2.6c-1.9,0-3.9,1.2-3.8,4.9v7.5h-2.2v-14H98z"/>
	<path d="M121.5,324.1c0,0.4,0.5,0.8,1.1,0.8c0.2,0,0.3,0,0.5-0.1v1.8c-0.5,0.2-1,0.2-1.7,0.2c-1,0-2-1.1-2.1-2
		c-1.1,0.8-2.6,2-4.5,2c-3.1,0-5.1-1.6-4.9-4.4c0.2-2.3,1.5-3.2,2.9-3.7c2.5-0.7,3.8-0.5,5.2-0.8c0.3-0.1,1.1-0.3,1.1-1.1v-1.7
		c-0.2-1-2.1-1.4-3.6-1.4c-2.6,0-2.8,1.9-2.9,2.6h-2.1l0.1-1.2c0.2-0.8,0.9-2.1,2.3-2.8c0.7-0.3,1.6-0.6,2.9-0.6
		c0.7,0,1.5,0,2.4,0.2c1.8,0.4,3.2,1.3,3.3,2.7V324.1z M119.1,319.4c-1.8,0.7-4.3,0.7-5.6,1.3c-0.4,0.2-1.3,0.9-1.3,1.9
		c-0.1,1.7,1.2,2.4,2.5,2.4c3,0.1,4.5-2.3,4.5-2.8V319.4z"/>
	<path d="M136.8,306.8v19.5h-2v-1.6c-0.4,0.5-1.1,1.2-1.9,1.7c-0.5,0.3-1.4,0.5-2.4,0.5c-1,0-2-0.2-2.8-0.6c-2.1-1-3.2-3.5-3.4-6.1
		c-0.2-2.5,0.4-5.2,1.8-6.6c1.3-1.4,2.8-1.8,4.1-1.8c1.3,0,2.4,0.5,3,0.9c0.6,0.4,1.1,0.9,1.2,1.3h0.1v-7.2H136.8z M131,324.8
		c1.1-0.1,2.2-0.6,2.7-1.5c1.8-3,0.6-6.8-0.1-7.8c-0.6-0.8-1.7-1.3-2.8-1.3c-1.1-0.1-2.2,0.4-2.9,1.4c-1.2,1.6-1.5,5.6,0.2,8
		C128.7,324.5,129.9,324.9,131,324.8z"/>
	<path d="M151.2,324.1c0,0.4,0.5,0.8,1.1,0.8c0.2,0,0.3,0,0.5-0.1v1.8c-0.5,0.2-1,0.2-1.7,0.2c-1,0-2-1.1-2.1-2
		c-1.1,0.8-2.6,2-4.5,2c-3.1,0-5.1-1.6-4.9-4.4c0.2-2.3,1.5-3.2,2.9-3.7c2.5-0.7,3.8-0.5,5.2-0.8c0.3-0.1,1.1-0.3,1.1-1.1v-1.7
		c-0.2-1-2.1-1.4-3.6-1.4c-2.6,0-2.8,1.9-2.9,2.6h-2.1l0.1-1.2c0.2-0.8,0.9-2.1,2.3-2.8c0.7-0.3,1.6-0.6,2.9-0.6
		c0.7,0,1.5,0,2.4,0.2c1.8,0.4,3.2,1.3,3.3,2.7V324.1z M148.9,319.4c-1.8,0.7-4.3,0.7-5.6,1.3c-0.4,0.2-1.3,0.9-1.3,1.9
		c-0.1,1.7,1.2,2.4,2.5,2.4c3,0.1,4.5-2.3,4.5-2.8V319.4z"/>
</g>
<g>
	<path d="M226.9,289.4h8.2v10.4h-1.6l-0.6-2.4c-1.5,1.4-3.1,2.9-6.9,2.9c-1.9,0-4.4-1.1-5.3-1.9c-2.5-2.2-3.4-5.5-3.4-8.3
		c0-2.8,0.9-6.1,3.4-8.3c0.9-0.8,3.3-2,6-2c1.5-0.1,3.1,0.2,4.2,0.8c3.3,1.8,3.8,4.2,4,5.4h-2.5c-0.1-1.6-2.1-4-5.7-4
		c-1.7,0-3.5,0.6-4.7,1.9c-1.3,1.4-2.2,3.7-2.1,6.1c-0.1,2.4,0.8,4.8,2.1,6.1c1.2,1.3,3,1.9,4.7,1.9c1.4,0,2.5-0.3,3.4-0.9
		c3-2,2.7-4.4,2.7-5.6h-5.9V289.4z"/>
	<path d="M244.2,300.3c-2.6,0-6.3-1.3-6.3-7.5c0-6.3,3.8-7.5,6.3-7.5c2.6,0,6.3,1.3,6.3,7.5C250.6,299.1,246.8,300.3,244.2,300.3z
		 M244.2,287.5c-2.9,0-4,3-4,5.3c0,2.3,1.1,5.3,4,5.3c3,0,4-3,4-5.3C248.3,290.5,247.2,287.5,244.2,287.5z"/>
	<path d="M262.4,299.7v-1.5h-0.1c-0.4,0.7-1,1.3-1.5,1.5c-0.7,0.4-1.8,0.6-2.8,0.6c-1,0-1.9-0.2-2.2-0.3c-1-0.6-1.9-1.6-2.2-3.2
		v-11.2h2.2v9.9c0,1,0.4,1.8,1.1,2.2c0.3,0.2,0.8,0.3,1.3,0.4c0.5,0.1,1,0,1.6-0.2c2.4-0.9,2.8-2.9,2.8-4.8v-7.6h2.2v14H262.4z"/>
	<path d="M271.9,299.7l-4.9-14h2.5l3.6,11.4l4.1-11.4h2.5l-5.4,14H271.9z"/>
	<path d="M283.5,293.6c-0.1,1,0,1.8,0.8,3c0.6,0.8,1.5,1.7,3.2,1.7c2.8,0,3.4-2.1,3.7-2.9h2.3c-0.2,0.9-0.4,1.8-1.3,2.8
		c-1,1.4-2.9,2.1-4.7,2.1c-1.8,0-3.7-0.7-4.9-2.2c-0.9-1.2-1.4-3.2-1.4-5.3c0-2.1,0.6-4.1,1.7-5.4c1.5-1.7,3.4-2.2,5.2-2.1
		c1.7,0.1,3.3,0.9,4.2,2c1.5,2.1,1.6,3.7,1.6,6.3H283.5z M291.3,291.6c0.1-1.3-0.7-2.9-1-3.3c-0.3-0.6-1.3-1.1-2.4-1.2
		c-1.1-0.1-2.3,0.2-3.1,1.2c-0.3,0.3-1.1,1.8-1.2,3.3H291.3z"/>
	<path d="M296.7,285.7h2.2v2.2h0.1c0.8-1.6,2.2-2.5,3.2-2.6h1.3v2.4c-0.8,0-1.5,0.1-2.1,0.3c-1.6,0.7-2.4,2-2.4,4.5v7.3h-2.2V285.7z
		"/>
	<path d="M307.9,285.7v1.8h0.1c0.4-0.7,1-1.3,1.5-1.5c0.7-0.5,1.8-0.7,2.8-0.6c1,0,2,0.2,2.3,0.4c0.7,0.4,1.9,1.1,2.2,3.2v10.9h-2.2
		V290c0-1.7-1.3-2.6-2.8-2.6c-1.9,0-3.9,1.2-3.8,4.9v7.5h-2.2v-14H307.9z"/>
	<path d="M322.1,293.6c-0.1,1,0,1.8,0.8,3c0.6,0.8,1.5,1.7,3.2,1.7c2.8,0,3.4-2.1,3.7-2.9h2.3c-0.2,0.9-0.4,1.8-1.3,2.8
		c-1,1.4-2.9,2.1-4.7,2.1c-1.8,0-3.7-0.7-4.9-2.2c-0.9-1.2-1.4-3.2-1.4-5.3c0-2.1,0.6-4.1,1.7-5.4c1.5-1.7,3.4-2.2,5.2-2.1
		c1.7,0.1,3.3,0.9,4.2,2c1.5,2.1,1.5,3.7,1.6,6.3H322.1z M329.9,291.6c0.1-1.3-0.7-2.9-1-3.3c-0.3-0.6-1.3-1.1-2.4-1.2
		c-1.1-0.1-2.3,0.2-3.1,1.2c-0.3,0.3-1.2,1.8-1.2,3.3H329.9z"/>
	<path d="M335.4,285.7h2.2v1.8h0.1c0.3-0.5,0.8-1.3,1.4-1.6c0.6-0.3,1.6-0.6,2.6-0.6c0.9,0,1.6,0,2.3,0.5c0.5,0.4,0.9,0.7,1.5,1.6
		c0.6-0.7,1-1.4,1.9-1.7c0.6-0.3,1.4-0.4,2.1-0.4c1,0,1.9,0.1,2.6,0.4c0.9,0.5,1.8,1.8,1.8,3v11h-2.2v-10c-0.3-1.8-1.3-2.4-2.7-2.4
		c-2,0-3,1.4-3.2,2.9v9.5h-2.2v-10.1c-0.2-1.8-1.5-2.3-2.6-2.3c-1.8,0-3.2,1.4-3.3,3.4v9h-2.2V285.7z"/>
	<path d="M359.2,293.6c-0.1,1,0,1.8,0.8,3c0.6,0.8,1.5,1.7,3.2,1.7c2.8,0,3.4-2.1,3.7-2.9h2.3c-0.2,0.9-0.4,1.8-1.3,2.8
		c-1,1.4-2.9,2.1-4.7,2.1c-1.8,0-3.7-0.7-4.9-2.2c-0.9-1.2-1.4-3.2-1.4-5.3c0-2.1,0.6-4.1,1.7-5.4c1.5-1.7,3.4-2.2,5.2-2.1
		c1.7,0.1,3.3,0.9,4.2,2c1.5,2.1,1.6,3.7,1.6,6.3H359.2z M367,291.6c0.1-1.3-0.7-2.9-1-3.3c-0.3-0.6-1.3-1.1-2.4-1.2
		c-1.1-0.1-2.3,0.2-3.1,1.2c-0.3,0.3-1.1,1.8-1.2,3.3H367z"/>
	<path d="M374.7,285.7v1.8h0.1c0.4-0.7,1-1.3,1.5-1.5c0.7-0.5,1.8-0.7,2.8-0.6c1,0,2,0.2,2.3,0.4c0.7,0.4,1.9,1.1,2.2,3.2v10.9h-2.2
		V290c0-1.7-1.3-2.6-2.8-2.6c-1.9,0-3.9,1.2-3.8,4.9v7.5h-2.2v-14H374.7z"/>
	<path d="M390,285.7h2.2v2.1H390v9.7c0,0.9,1,0.9,2.2,0.7v2c-0.9,0.2-1.5,0.2-2.4,0.2c-1.5-0.2-2-1.4-2-2v-10.6h-2v-2.1h2v-3.8h2.2
		V285.7z"/>
	<path d="M229.4,307v19.5h-2v-1.6c-0.4,0.5-1.1,1.2-1.9,1.7c-0.5,0.3-1.4,0.5-2.4,0.5c-1,0-2-0.2-2.8-0.6c-2.1-1-3.2-3.5-3.4-6.1
		c-0.2-2.5,0.4-5.2,1.8-6.6c1.3-1.4,2.8-1.8,4.1-1.8c1.3,0,2.4,0.5,3,0.9c0.6,0.4,1.1,0.9,1.2,1.3h0.1V307H229.4z M223.5,324.9
		c1.1-0.1,2.2-0.6,2.7-1.5c1.8-3,0.6-6.8-0.1-7.8c-0.6-0.8-1.7-1.3-2.8-1.3c-1.1-0.1-2.2,0.4-2.9,1.4c-1.2,1.6-1.5,5.6,0.2,8
		C221.3,324.6,222.4,325,223.5,324.9z"/>
	<path d="M241.7,326.4v-1.5h-0.1c-0.4,0.7-1,1.3-1.6,1.5c-0.7,0.4-1.8,0.6-2.8,0.6c-1,0-1.9-0.2-2.2-0.3c-1-0.6-2-1.6-2.2-3.2v-11.2
		h2.2v9.9c0,1,0.4,1.8,1.1,2.2c0.3,0.2,0.8,0.3,1.3,0.4c0.5,0.1,1,0,1.6-0.2c2.4-0.9,2.8-2.9,2.8-4.8v-7.6h2.2v14H241.7z"/>
	<path d="M268.4,313c-0.9-2.5-2.5-4.1-5.2-4.1c-1.6,0-3.1,0.6-4.2,1.9c-1.1,1.4-1.9,3.7-1.9,6.1c-0.1,2.4,0.7,4.7,1.9,6.1
		c1.1,1.3,2.6,1.9,4.2,1.9c2.9,0,4.6-1.8,5.6-5.5h2.6c-0.8,4.5-3.9,7.8-8.3,7.7c-2.4,0-4.6-1.2-5.4-2c-2.3-2.2-3.1-5.5-3.1-8.2
		c0-2.8,0.8-6,3.1-8.2c0.8-0.8,3-2,5.4-2c4.1-0.1,6.8,2.4,7.9,6.3H268.4z"/>
	<path d="M285.3,324.3c0,0.4,0.5,0.8,1.1,0.8c0.2,0,0.3,0,0.5-0.1v1.8c-0.5,0.2-1,0.2-1.7,0.2c-1,0-2-1.1-2.1-2
		c-1.1,0.8-2.6,2-4.5,2c-3.1,0-5.1-1.6-4.9-4.4c0.2-2.3,1.5-3.2,2.9-3.7c2.5-0.8,3.8-0.5,5.2-0.8c0.3-0.1,1.1-0.3,1.1-1.1v-1.7
		c-0.2-1-2.1-1.4-3.6-1.4c-2.6,0-2.8,2-2.9,2.6h-2.1l0.1-1.2c0.2-0.8,0.9-2.1,2.3-2.8c0.7-0.3,1.6-0.6,2.9-0.6c0.7,0,1.5,0,2.4,0.2
		c1.8,0.4,3.2,1.3,3.3,2.7V324.3z M283,319.6c-1.8,0.7-4.3,0.7-5.6,1.3c-0.4,0.2-1.3,0.9-1.3,1.9c-0.1,1.7,1.2,2.4,2.5,2.4
		c3,0.1,4.5-2.3,4.5-2.8V319.6z"/>
	<path d="M291.6,312.4v1.8h0.1c0.4-0.7,1-1.3,1.6-1.5c0.7-0.5,1.8-0.7,2.8-0.6c1,0,1.9,0.2,2.3,0.4c0.7,0.4,1.9,1.1,2.2,3.2v10.9
		h-2.2v-9.8c0-1.7-1.3-2.6-2.8-2.6c-1.9,0-3.9,1.2-3.8,4.9v7.5h-2.2v-14H291.6z"/>
	<path d="M315,324.3c0,0.4,0.5,0.8,1.1,0.8c0.2,0,0.3,0,0.5-0.1v1.8c-0.5,0.2-1,0.2-1.7,0.2c-1,0-2-1.1-2.1-2c-1.1,0.8-2.6,2-4.5,2
		c-3.1,0-5.1-1.6-4.9-4.4c0.2-2.3,1.5-3.2,2.9-3.7c2.5-0.8,3.8-0.5,5.2-0.8c0.3-0.1,1.1-0.3,1.1-1.1v-1.7c-0.2-1-2.1-1.4-3.6-1.4
		c-2.6,0-2.8,2-2.9,2.6h-2.1l0.1-1.2c0.2-0.8,0.9-2.1,2.3-2.8c0.7-0.3,1.6-0.6,2.9-0.6c0.7,0,1.5,0,2.4,0.2c1.8,0.4,3.2,1.3,3.3,2.7
		V324.3z M312.7,319.6c-1.8,0.7-4.3,0.7-5.6,1.3c-0.4,0.2-1.3,0.9-1.3,1.9c-0.1,1.7,1.2,2.4,2.5,2.4c3,0.1,4.5-2.3,4.5-2.8V319.6z"
		/>
	<path d="M330.4,307v19.5h-2v-1.6c-0.4,0.5-1.1,1.2-1.9,1.7c-0.5,0.3-1.4,0.5-2.4,0.5c-1,0-2-0.2-2.8-0.6c-2.1-1-3.2-3.5-3.4-6.1
		c-0.2-2.5,0.4-5.2,1.8-6.6c1.3-1.4,2.8-1.8,4.1-1.8c1.3,0,2.4,0.5,3,0.9c0.6,0.4,1.1,0.9,1.2,1.3h0.1V307H330.4z M324.5,324.9
		c1.1-0.1,2.2-0.6,2.7-1.5c1.8-3,0.6-6.8-0.1-7.8c-0.6-0.8-1.7-1.3-2.8-1.3c-1.1-0.1-2.2,0.4-2.9,1.4c-1.2,1.6-1.5,5.6,0.2,8
		C322.3,324.6,323.4,325,324.5,324.9z"/>
	<path d="M344.7,324.3c0,0.4,0.5,0.8,1.1,0.8c0.2,0,0.3,0,0.5-0.1v1.8c-0.5,0.2-1,0.2-1.7,0.2c-1,0-2-1.1-2.1-2
		c-1.1,0.8-2.6,2-4.5,2c-3.1,0-5.1-1.6-4.9-4.4c0.2-2.3,1.5-3.2,2.9-3.7c2.5-0.8,3.8-0.5,5.2-0.8c0.3-0.1,1.1-0.3,1.1-1.1v-1.7
		c-0.2-1-2.1-1.4-3.6-1.4c-2.6,0-2.8,2-2.9,2.6h-2.1l0.1-1.2c0.2-0.8,0.9-2.1,2.3-2.8c0.7-0.3,1.6-0.6,2.9-0.6c0.7,0,1.5,0,2.4,0.2
		c1.8,0.4,3.2,1.3,3.3,2.7V324.3z M342.4,319.6c-1.8,0.7-4.3,0.7-5.6,1.3c-0.4,0.2-1.3,0.9-1.3,1.9c-0.1,1.7,1.2,2.4,2.5,2.4
		c3,0.1,4.5-2.3,4.5-2.8V319.6z"/>
</g>
</svg>
