<?xml version="1.0" encoding="utf-8"?>
<!-- Generator: Adobe Illustrator 19.0.0, SVG Export Plug-In . SVG Version: 6.00 Build 0)  -->
<svg version="1.1" id="Layer_1" xmlns="http://www.w3.org/2000/svg" xmlns:xlink="http://www.w3.org/1999/xlink" x="0px" y="0px"
	 viewBox="0 0 500 500" style="enable-background:new 0 0 500 500;" xml:space="preserve">
<style type="text/css">
	.st0{fill:#ED1C24;}
	.st1{fill:#231F20;}
</style>
<g id="XMLID_16_">
	<path id="XMLID_51_" d="M118.8,230.3c-7,22.3-24.3,27.9-32.9,27.8c-18.7-0.3-36-15.4-36.6-49.7c-0.8-43.8,48.7-72.4,67.4-16
		c0.4,1.2,1.3,1.5,1.6,0.5l-2.1-33.6c-0.3-0.8-1.6-0.8-1.6,0c-0.2,7.3-12.9,1.2-17.5,0.1C57.6,150.4,31,182,31,208.3
		c0,34.1,22.5,52.7,51.5,52.7c23.1,0,34.8-14.7,38.6-30.7C121.6,228.3,119.3,228.7,118.8,230.3z"/>
	<path id="XMLID_48_" d="M185.1,253.9c-3,7.1-13.4,3.5-13.4-7.1V208c0-12.6-27.6-14-37.8-9.7c-20.7,9.8-0.2,22,3.6,8.3
		c2.4-6.8,6.1-8.2,10.5-8.2c4.2,0,11.1,1.2,11.1,14.5c0,5.4-1.5,13-14.8,15c-42.6,0.8-19.9,51.8,15.7,25.9c6.4,10.1,25,8.9,26.8,1.4
		C187.6,253.6,186,252.9,185.1,253.9z M159.5,243.9c0,7.5-7.5,15.2-16,14.1c-8.9-0.5-20.1-19.1,16-32.3V243.9z"/>
	<path id="XMLID_47_" d="M262.2,259.2c-7.2-2.8-8.2-8.2-8.2-9.9v-35.5c0-20.3-19.5-17.6-26.3-17.6c-8.6,0.1-17.7,5.5-18.7,7.9
		c-0.3-6.6-1.1-7.2-2.8-7.1l-17.3,2.3c-1.1,0.3-1.1,0.8,0.9,1.3c3.8,0.1,6.2,2.7,6.2,8.2v40.4c0,4.8-6.8,9.1-8.2,9.7
		c-3.2,1.3,1.6,1.1,1.6,1.1h28.3c0.9,0,3.9,0.3,0.1-1.5c-4.3-1.6-9-5.1-9-9.3c0-4.2,0-30.4,0-30.4c0-12.8,8.4-19.7,16.5-19.7
		c8.6,0,15.7,1.9,15.7,19.6v30.5c0,4.4-5.8,8.5-8.9,9.5c-2,0.5-2.8,1.2-1.1,1.2h30.2C263,260.1,263.7,259.6,262.2,259.2z"/>
	<path id="XMLID_44_" d="M402.4,259.1c-8.9-2.4-10.9-10.9-10.9-16.4l0.1-79.2c0-1.6-0.2-1.8-1.2-1.9l-18,0.4c-9.7,0-3.6,0.3,1.1,1.9
		c3.2,0.9,7.4,4,7.3,14.5v20.3c0,11.5,0.1-2.3-20.5-2.3c-23,0-32,18-32,33.9c0,18,13.9,31.2,31,31.2c9,0,16.3-1.2,19.2-6.3l-0.1,0.4
		c1.2,5.5,2.4,6.9,5.2,6.6l19.6-2.1C404.2,259.8,403.2,259.2,402.4,259.1z M361,258.2c-10.7,0-19.4-13-19.3-28.9
		c0-15.9,8.7-29.8,19.4-29.8c10.7,0,17.8,5.8,17.8,29.6C378.9,254.1,371.7,258.2,361,258.2z"/>
	<path id="XMLID_30_" d="M327.5,254c-3,7.1-13.4,3.5-13.4-7.1v-38.8c0-12.6-27.6-14-37.9-9.7c-20.7,9.8-0.1,22,3.6,8.3
		c2.4-6.8,6.1-8.2,10.5-8.2c4.2,0,11.1,1.2,11.1,14.5c0,5.4-1.5,13-14.8,15c-42.6,0.8-19.9,51.8,15.7,25.9c6.4,10.1,25,8.9,26.9,1.4
		C330,253.7,328.4,253,327.5,254z M301.3,244c0,7.5-7.5,15.2-16,14.1c-8.9-0.6-20.1-19.1,16-32.3V244z"/>
	<path id="XMLID_27_" d="M467,254.2c-2.9,7.1-13.4,3.5-13.4-7.1v-38.8c0-12.6-27.6-14-37.9-9.7c-20.7,9.8-0.2,22,3.6,8.3
		c2.4-6.8,6-8.2,10.5-8.2c4.2,0,11.2,1.2,11.1,14.5c0,5.4-1.5,13-14.8,15c-42.6,0.8-19.9,51.8,15.7,25.9c6.4,10.1,25,8.9,26.8,1.4
		C469.5,254,467.9,253.3,467,254.2z M440.8,244.3c0,7.5-7.5,15.2-16,14.1c-8.9-0.5-20.1-19.1,16-32.3V244.3z"/>
</g>
<g id="XMLID_7_">
	<g id="XMLID_13_">
		
			<rect id="XMLID_15_" x="395.4" y="169.8" transform="matrix(1.115888e-003 -1 1 1.115888e-003 232.7649 587.3925)" class="st0" width="30.1" height="14.8"/>
		<path id="XMLID_14_" class="st0" d="M410.4,177.2"/>
	</g>
	<g id="XMLID_10_">
		
			<rect id="XMLID_12_" x="442.9" y="169.9" transform="matrix(1.114265e-003 -1 1 1.114265e-003 280.0979 634.9943)" class="st0" width="30.1" height="14.8"/>
		<path id="XMLID_11_" class="st0" d="M457.9,177.3"/>
	</g>
	<g id="XMLID_8_">
		<path id="XMLID_9_" class="st0" d="M432.1,168.5l2.1-4.3l2.1,4.1c0.2,0.4,0.5,0.4,0.9,0.2l1.8-0.9l-1.2,5.8
			c-0.2,1.1,0.4,1.5,1.1,0.7l2.6-2.7l0.7,1.6c0.2,0.5,0.6,0.4,1,0.3l2.7-0.6L445,176v0.1c-0.1,0.4-0.3,0.8,0.2,1l0.9,0.5l-5.5,4.6
			c-0.6,0.6-0.4,0.8-0.2,1.4l0.5,1.6l-5.1-0.9c-0.6-0.2-1.1-0.2-1.1,0.3l0.2,5.8h-1.5l0.2-5.8c0-0.6-0.4-0.6-1.5-0.3l-4.7,0.9
			l0.6-1.6c0.2-0.6,0.3-1-0.2-1.4l-5.6-4.6l1-0.6c0.3-0.2,0.3-0.5,0.1-1l-1-3.4l2.7,0.6c0.8,0.2,1,0,1.1-0.4l0.8-1.5l2.7,3
			c0.5,0.6,1.1,0.2,0.9-0.6l-1.3-6.3l2,1.1C431.6,168.7,432,168.7,432.1,168.5"/>
	</g>
</g>
<g>
	<path class="st1" d="M246.8,280h2.9l7.8,20h-2.9l-2.2-6H244l-2.2,6H239L246.8,280z M244.9,291.7h6.8l-3.3-9.3h-0.1L244.9,291.7z"/>
	<path class="st1" d="M260.2,287.6h-2.4v-2.1h2.4v-2.2c0-2.4,1.4-3.6,4-3.6c0.5,0,1.1,0.1,1.5,0.2v2.1c-0.4-0.1-0.9-0.2-1.3-0.2
		c-1.1,0-1.8,0.4-1.8,1.6v2h2.8v2.1h-2.8V300h-2.4V287.6z"/>
	<path class="st1" d="M268,287.6h-2.4v-2.1h2.4v-2.2c0-2.4,1.4-3.6,4-3.6c0.5,0,1.1,0.1,1.5,0.2v2.1c-0.4-0.1-0.9-0.2-1.3-0.2
		c-1.1,0-1.8,0.4-1.8,1.6v2h2.8v2.1h-2.8V300H268V287.6z"/>
	<path class="st1" d="M288.2,300c-0.4,0.3-1,0.4-1.7,0.4c-1.2,0-2-0.7-2-2.2c-1.3,1.5-3.1,2.2-5.1,2.2c-2.6,0-4.8-1.2-4.8-4.1
		c0-3.3,2.4-4,4.9-4.5c2.6-0.5,4.9-0.3,4.9-2.1c0-2.1-1.7-2.4-3.2-2.4c-2,0-3.5,0.6-3.6,2.8h-2.4c0.1-3.6,2.9-4.9,6.1-4.9
		c2.6,0,5.4,0.6,5.4,4v7.5c0,1.1,0,1.6,0.8,1.6c0.2,0,0.4,0,0.7-0.1V300z M284.3,292.5c-0.9,0.7-2.7,0.7-4.3,1
		c-1.6,0.3-2.9,0.8-2.9,2.6c0,1.6,1.3,2.1,2.8,2.1c3.1,0,4.4-2,4.4-3.3V292.5z"/>
	<path class="st1" d="M293,282.9h-2.4V280h2.4V282.9z M290.6,285.5h2.4V300h-2.4V285.5z"/>
	<path class="st1" d="M296.6,285.5h2.2v3.1h0.1c1.2-2.3,2.8-3.5,5.3-3.4v2.5c-3.8,0-5.3,2.2-5.3,5.9v6.5h-2.4V285.5z"/>
	<path class="st1" d="M317.9,295.4c-0.6,3.2-2.9,4.9-6.2,4.9c-4.6,0-6.8-3.2-7-7.6c0-4.4,2.9-7.6,6.8-7.6c5.1,0,6.7,4.8,6.6,8.3
		h-10.9c-0.1,2.5,1.3,4.8,4.5,4.8c2,0,3.3-1,3.8-2.8H317.9z M315.6,291.4c-0.1-2.3-1.8-4.1-4.2-4.1c-2.5,0-4,1.9-4.2,4.1H315.6z"/>
	<path class="st1" d="M322.1,295.4c0.1,2.1,1.9,2.8,3.9,2.8c1.5,0,3.5-0.3,3.5-2.2c0-1.9-2.4-2.2-4.7-2.7c-2.4-0.5-4.7-1.3-4.7-4.1
		c0-2.9,2.9-4.1,5.4-4.1c3.2,0,5.8,1,6,4.5H329c-0.2-1.9-1.8-2.4-3.4-2.4c-1.4,0-3.1,0.4-3.1,1.9c0,1.7,2.5,2,4.7,2.5
		c2.4,0.5,4.7,1.3,4.7,4.1c0,3.5-3.2,4.6-6.2,4.6c-3.3,0-6-1.3-6.2-4.9H322.1z"/>
	<path class="st1" d="M342.5,285.5h2.2v2.1h0.1c1.1-1.6,2.7-2.5,4.7-2.5c1.8,0,3.4,0.7,4,2.5c1-1.5,2.7-2.5,4.5-2.5
		c2.9,0,4.8,1.2,4.8,4.2V300h-2.4v-9.5c0-1.8-0.5-3.2-2.8-3.2c-2.3,0-3.8,1.5-3.8,3.7v9h-2.4v-9.5c0-1.9-0.6-3.2-2.7-3.2
		c-2.8,0-3.9,2.6-3.9,3.7v9h-2.4V285.5z"/>
	<path class="st1" d="M372.7,285.2c4.6,0,7,3.3,7,7.6c0,4.2-2.4,7.6-7,7.6c-4.6,0-7-3.3-7-7.6C365.6,288.5,368.1,285.2,372.7,285.2z
		 M372.7,298.2c2.5,0,4.5-2,4.5-5.5c0-3.5-2-5.5-4.5-5.5c-2.5,0-4.5,2-4.5,5.5C368.2,296.3,370.2,298.2,372.7,298.2z"/>
	<path class="st1" d="M382.5,285.5h2.2v2.3h0.1c1-1.8,2.6-2.6,4.7-2.6c3.8,0,5,2.2,5,5.3v9.5h-2.4v-9.8c0-1.8-1.1-2.9-2.9-2.9
		c-2.9,0-4.3,1.9-4.3,4.5v8.2h-2.4V285.5z"/>
	<path class="st1" d="M411.1,300h-2.4v-2h-0.1c-0.8,1.6-2.6,2.3-4.6,2.3c-4.5,0-6.7-3.5-6.7-7.6s2.2-7.6,6.6-7.6
		c1.5,0,3.6,0.6,4.7,2.3h0.1V280h2.4V300z M404.4,298.2c3.2,0,4.4-2.8,4.4-5.5c0-2.9-1.3-5.5-4.6-5.5c-3.3,0-4.4,2.8-4.4,5.6
		C399.9,295.6,401.3,298.2,404.4,298.2z"/>
	<path class="st1" d="M417.4,282.9H415V280h2.4V282.9z M415,285.5h2.4V300H415V285.5z"/>
	<path class="st1" d="M433.9,300c-0.4,0.3-1,0.4-1.7,0.4c-1.2,0-2-0.7-2-2.2c-1.3,1.5-3.1,2.2-5.1,2.2c-2.6,0-4.8-1.2-4.8-4.1
		c0-3.3,2.4-4,4.9-4.5c2.6-0.5,4.9-0.3,4.9-2.1c0-2.1-1.7-2.4-3.2-2.4c-2,0-3.5,0.6-3.6,2.8h-2.4c0.1-3.6,2.9-4.9,6.1-4.9
		c2.6,0,5.4,0.6,5.4,4v7.5c0,1.1,0,1.6,0.8,1.6c0.2,0,0.4,0,0.7-0.1V300z M430,292.5c-0.9,0.7-2.7,0.7-4.3,1
		c-1.6,0.3-2.9,0.8-2.9,2.6c0,1.6,1.3,2.1,2.8,2.1c3.1,0,4.4-2,4.4-3.3V292.5z"/>
	<path class="st1" d="M436.3,280h2.4v20h-2.4V280z"/>
	<path class="st1" d="M454.8,295.4c-0.6,3.2-2.9,4.9-6.2,4.9c-4.6,0-6.8-3.2-7-7.6c0-4.4,2.9-7.6,6.8-7.6c5.1,0,6.7,4.8,6.6,8.3
		h-10.9c-0.1,2.5,1.3,4.8,4.5,4.8c2,0,3.3-1,3.8-2.8H454.8z M452.5,291.4c-0.1-2.3-1.8-4.1-4.2-4.1c-2.5,0-4,1.9-4.2,4.1H452.5z"/>
	<path class="st1" d="M458.9,295.4c0.1,2.1,1.9,2.8,3.9,2.8c1.5,0,3.5-0.3,3.5-2.2c0-1.9-2.4-2.2-4.7-2.7c-2.4-0.5-4.7-1.3-4.7-4.1
		c0-2.9,2.9-4.1,5.4-4.1c3.2,0,5.8,1,6,4.5h-2.4c-0.2-1.9-1.8-2.4-3.4-2.4c-1.4,0-3.1,0.4-3.1,1.9c0,1.7,2.5,2,4.7,2.5
		c2.4,0.5,4.7,1.3,4.7,4.1c0,3.5-3.2,4.6-6.2,4.6c-3.3,0-6-1.3-6.2-4.9H458.9z"/>
	<path class="st1" d="M255.5,314.9c-0.6-2.8-2.8-4.3-5.6-4.3c-4.8,0-6.8,3.9-6.8,8.1c0,4.6,2,8.4,6.8,8.4c3.5,0,5.5-2.5,5.8-5.8h2.7
		c-0.5,5-3.6,8-8.7,8c-6.2,0-9.3-4.6-9.3-10.4c0-5.8,3.3-10.6,9.5-10.6c4.2,0,7.6,2.2,8.3,6.5H255.5z"/>
	<path class="st1" d="M274.2,328.9c-0.4,0.3-1,0.4-1.7,0.4c-1.2,0-2-0.7-2-2.2c-1.3,1.5-3.1,2.2-5.1,2.2c-2.6,0-4.8-1.2-4.8-4.1
		c0-3.3,2.4-4,4.9-4.5c2.6-0.5,4.9-0.3,4.9-2.1c0-2.1-1.7-2.4-3.2-2.4c-2,0-3.5,0.6-3.6,2.8h-2.4c0.1-3.6,2.9-4.9,6.1-4.9
		c2.6,0,5.4,0.6,5.4,4v7.5c0,1.1,0,1.6,0.8,1.6c0.2,0,0.4,0,0.7-0.1V328.9z M270.3,321.4c-0.9,0.7-2.7,0.7-4.3,1
		c-1.6,0.3-2.9,0.8-2.9,2.6c0,1.6,1.3,2.1,2.8,2.1c3.1,0,4.4-2,4.4-3.3V321.4z"/>
	<path class="st1" d="M276.4,314.4h2.2v2.3h0.1c1-1.8,2.6-2.6,4.7-2.6c3.8,0,5,2.2,5,5.3v9.5H286v-9.8c0-1.8-1.1-2.9-2.9-2.9
		c-2.9,0-4.3,1.9-4.3,4.5v8.2h-2.4V314.4z"/>
	<path class="st1" d="M304.9,328.9c-0.4,0.3-1,0.4-1.7,0.4c-1.2,0-2-0.7-2-2.2c-1.3,1.5-3.1,2.2-5.1,2.2c-2.6,0-4.8-1.2-4.8-4.1
		c0-3.3,2.4-4,4.9-4.5c2.6-0.5,4.9-0.3,4.9-2.1c0-2.1-1.7-2.4-3.2-2.4c-2,0-3.5,0.6-3.6,2.8h-2.4c0.1-3.6,2.9-4.9,6.2-4.9
		c2.6,0,5.4,0.6,5.4,4v7.5c0,1.1,0,1.6,0.8,1.6c0.2,0,0.4,0,0.7-0.1V328.9z M301,321.4c-0.9,0.7-2.7,0.7-4.3,1
		c-1.6,0.3-2.9,0.8-2.9,2.6c0,1.6,1.3,2.1,2.8,2.1c3.1,0,4.4-2,4.4-3.3V321.4z"/>
	<path class="st1" d="M320.1,328.9h-2.4v-2h-0.1c-0.8,1.6-2.6,2.3-4.6,2.3c-4.5,0-6.7-3.5-6.7-7.6c0-4.1,2.2-7.6,6.6-7.6
		c1.5,0,3.6,0.6,4.7,2.3h0.1v-7.5h2.4V328.9z M313.3,327.2c3.2,0,4.4-2.8,4.4-5.5c0-2.9-1.3-5.5-4.6-5.5c-3.3,0-4.4,2.8-4.4,5.6
		C308.8,324.5,310.2,327.2,313.3,327.2z"/>
	<path class="st1" d="M336.6,328.9c-0.4,0.3-1,0.4-1.7,0.4c-1.2,0-2-0.7-2-2.2c-1.3,1.5-3.1,2.2-5.1,2.2c-2.6,0-4.8-1.2-4.8-4.1
		c0-3.3,2.4-4,4.9-4.5c2.6-0.5,4.9-0.3,4.9-2.1c0-2.1-1.7-2.4-3.2-2.4c-2,0-3.5,0.6-3.6,2.8h-2.4c0.1-3.6,2.9-4.9,6.2-4.9
		c2.6,0,5.4,0.6,5.4,4v7.5c0,1.1,0,1.6,0.8,1.6c0.2,0,0.4,0,0.7-0.1V328.9z M332.7,321.4c-0.9,0.7-2.7,0.7-4.3,1
		c-1.6,0.3-2.9,0.8-2.9,2.6c0,1.6,1.3,2.1,2.8,2.1c3.1,0,4.4-2,4.4-3.3V321.4z"/>
</g>
<g>
	<path class="st1" d="M47,297.5c-1.5,2.1-4.1,3-6.4,3c-6,0-9.5-4.9-9.5-10.1c0-5.8,3.2-10.9,9.5-10.9c4.4,0,7.9,2,8.6,6.7h-2.7
		c-0.5-3-3-4.4-6-4.4c-4.9,0-6.9,4.2-6.9,8.5c0,4.2,2.4,8,6.9,8c4.1,0,6.6-2.9,6.4-6.5h-6.4v-2.2h8.8V300h-1.7L47,297.5z"/>
	<path class="st1" d="M53.1,280h2.4v20h-2.4V280z"/>
	<path class="st1" d="M65.4,285.2c4.6,0,7,3.3,7,7.6c0,4.2-2.4,7.6-7,7.6c-4.6,0-7-3.3-7-7.6C58.4,288.5,60.8,285.2,65.4,285.2z
		 M65.4,298.2c2.5,0,4.5-2,4.5-5.5c0-3.5-2-5.5-4.5-5.5c-2.5,0-4.5,2-4.5,5.5C60.9,296.3,62.9,298.2,65.4,298.2z"/>
	<path class="st1" d="M75.4,280h2.4v7.5h0.1c0.8-1.6,2.6-2.3,4.6-2.3c4.5,0,6.7,3.5,6.7,7.6c0,4.1-2.2,7.6-6.6,7.6
		c-1.5,0-3.6-0.6-4.7-2.3h-0.1v1.9h-2.4V280z M82.1,287.3c-3.2,0-4.4,2.8-4.4,5.5c0,2.9,1.3,5.5,4.6,5.5c3.3,0,4.4-2.8,4.4-5.6
		C86.6,289.9,85.2,287.3,82.1,287.3z"/>
	<path class="st1" d="M104.8,300c-0.4,0.3-1,0.4-1.7,0.4c-1.2,0-2-0.7-2-2.2c-1.3,1.5-3.1,2.2-5.1,2.2c-2.6,0-4.8-1.2-4.8-4.1
		c0-3.3,2.4-4,4.9-4.5c2.6-0.5,4.9-0.3,4.9-2.1c0-2.1-1.7-2.4-3.2-2.4c-2,0-3.5,0.6-3.6,2.8h-2.4c0.1-3.6,2.9-4.9,6.2-4.9
		c2.6,0,5.4,0.6,5.4,4v7.5c0,1.1,0,1.6,0.8,1.6c0.2,0,0.4,0,0.7-0.1V300z M100.9,292.5c-0.9,0.7-2.7,0.7-4.3,1
		c-1.6,0.3-2.9,0.8-2.9,2.6c0,1.6,1.3,2.1,2.8,2.1c3.1,0,4.4-2,4.4-3.3V292.5z"/>
	<path class="st1" d="M107.2,280h2.4v20h-2.4V280z"/>
	<path class="st1" d="M126.9,280h2.9l7.8,20h-2.9l-2.2-6h-8.5l-2.2,6h-2.8L126.9,280z M124.9,291.7h6.8l-3.3-9.3h-0.1L124.9,291.7z"
		/>
	<path class="st1" d="M140.3,287.6h-2.4v-2.1h2.4v-2.2c0-2.4,1.4-3.6,4-3.6c0.4,0,1.1,0.1,1.5,0.2v2.1c-0.4-0.1-0.9-0.2-1.3-0.2
		c-1.2,0-1.8,0.4-1.8,1.6v2h2.8v2.1h-2.8V300h-2.4V287.6z"/>
	<path class="st1" d="M148.1,287.6h-2.4v-2.1h2.4v-2.2c0-2.4,1.4-3.6,4-3.6c0.4,0,1.1,0.1,1.5,0.2v2.1c-0.4-0.1-0.9-0.2-1.3-0.2
		c-1.2,0-1.8,0.4-1.8,1.6v2h2.8v2.1h-2.8V300h-2.4V287.6z"/>
	<path class="st1" d="M168.3,300c-0.4,0.3-1,0.4-1.7,0.4c-1.2,0-2-0.7-2-2.2c-1.3,1.5-3.1,2.2-5.1,2.2c-2.6,0-4.8-1.2-4.8-4.1
		c0-3.3,2.4-4,4.9-4.5c2.6-0.5,4.9-0.3,4.9-2.1c0-2.1-1.7-2.4-3.2-2.4c-2,0-3.5,0.6-3.6,2.8h-2.4c0.1-3.6,2.9-4.9,6.1-4.9
		c2.6,0,5.4,0.6,5.4,4v7.5c0,1.1,0,1.6,0.8,1.6c0.2,0,0.4,0,0.7-0.1V300z M164.4,292.5c-0.9,0.7-2.7,0.7-4.3,1
		c-1.6,0.3-2.9,0.8-2.9,2.6c0,1.6,1.3,2.1,2.8,2.1c3.1,0,4.4-2,4.4-3.3V292.5z"/>
	<path class="st1" d="M173,282.9h-2.4V280h2.4V282.9z M170.6,285.5h2.4V300h-2.4V285.5z"/>
	<path class="st1" d="M176.6,285.5h2.2v3.1h0.1c1.2-2.3,2.8-3.5,5.3-3.4v2.5c-3.8,0-5.2,2.2-5.2,5.9v6.5h-2.4V285.5z"/>
	<path class="st1" d="M187.5,295.4c0.1,2.1,1.9,2.8,3.9,2.8c1.5,0,3.5-0.3,3.5-2.2c0-1.9-2.4-2.2-4.7-2.7c-2.4-0.5-4.7-1.3-4.7-4.1
		c0-2.9,2.9-4.1,5.4-4.1c3.2,0,5.8,1,6,4.5h-2.4c-0.2-1.9-1.8-2.4-3.4-2.4c-1.4,0-3.1,0.4-3.1,1.9c0,1.7,2.5,2,4.7,2.5
		c2.4,0.5,4.7,1.3,4.7,4.1c0,3.5-3.2,4.6-6.2,4.6c-3.3,0-6-1.3-6.1-4.9H187.5z"/>
	<path class="st1" d="M46.1,314.9c-0.6-2.8-2.8-4.3-5.6-4.3c-4.8,0-6.8,3.9-6.8,8.1c0,4.6,2,8.4,6.8,8.4c3.5,0,5.5-2.5,5.8-5.8h2.7
		c-0.5,5-3.6,8-8.7,8c-6.2,0-9.3-4.6-9.3-10.4c0-5.8,3.3-10.6,9.5-10.6c4.2,0,7.6,2.2,8.3,6.5H46.1z"/>
	<path class="st1" d="M64.7,328.9c-0.4,0.3-1,0.4-1.7,0.4c-1.2,0-2-0.7-2-2.2c-1.3,1.5-3.1,2.2-5.1,2.2c-2.6,0-4.8-1.2-4.8-4.1
		c0-3.3,2.4-4,4.9-4.5c2.6-0.5,4.9-0.3,4.9-2.1c0-2.1-1.7-2.4-3.2-2.4c-2,0-3.5,0.6-3.6,2.8h-2.4c0.1-3.6,2.9-4.9,6.1-4.9
		c2.6,0,5.4,0.6,5.4,4v7.5c0,1.1,0,1.6,0.8,1.6c0.2,0,0.4,0,0.7-0.1V328.9z M60.9,321.4c-0.9,0.7-2.7,0.7-4.3,1
		c-1.6,0.3-2.9,0.8-2.9,2.6c0,1.6,1.3,2.1,2.8,2.1c3.1,0,4.4-2,4.4-3.3V321.4z"/>
	<path class="st1" d="M67,314.4h2.2v2.3h0.1c1-1.8,2.6-2.6,4.7-2.6c3.8,0,5,2.2,5,5.3v9.5h-2.4v-9.8c0-1.8-1.1-2.9-2.9-2.9
		c-2.9,0-4.3,1.9-4.3,4.5v8.2H67V314.4z"/>
	<path class="st1" d="M95.4,328.9c-0.4,0.3-1,0.4-1.7,0.4c-1.2,0-2-0.7-2-2.2c-1.3,1.5-3.1,2.2-5.1,2.2c-2.6,0-4.8-1.2-4.8-4.1
		c0-3.3,2.4-4,4.9-4.5c2.6-0.5,4.9-0.3,4.9-2.1c0-2.1-1.7-2.4-3.2-2.4c-2,0-3.5,0.6-3.6,2.8h-2.4c0.1-3.6,2.9-4.9,6.2-4.9
		c2.6,0,5.4,0.6,5.4,4v7.5c0,1.1,0,1.6,0.8,1.6c0.2,0,0.4,0,0.7-0.1V328.9z M91.6,321.4c-0.9,0.7-2.7,0.7-4.3,1
		c-1.6,0.3-2.9,0.8-2.9,2.6c0,1.6,1.3,2.1,2.8,2.1c3.1,0,4.4-2,4.4-3.3V321.4z"/>
	<path class="st1" d="M110.6,328.9h-2.4v-2h-0.1c-0.8,1.6-2.6,2.3-4.6,2.3c-4.5,0-6.7-3.5-6.7-7.6c0-4.1,2.2-7.6,6.6-7.6
		c1.5,0,3.6,0.6,4.7,2.3h0.1v-7.5h2.4V328.9z M103.9,327.2c3.2,0,4.4-2.8,4.4-5.5c0-2.9-1.3-5.5-4.6-5.5c-3.3,0-4.4,2.8-4.4,5.6
		C99.4,324.5,100.8,327.2,103.9,327.2z"/>
	<path class="st1" d="M127.2,328.9c-0.4,0.3-1,0.4-1.7,0.4c-1.2,0-2-0.7-2-2.2c-1.3,1.5-3.1,2.2-5.1,2.2c-2.6,0-4.8-1.2-4.8-4.1
		c0-3.3,2.4-4,4.9-4.5c2.6-0.5,4.9-0.3,4.9-2.1c0-2.1-1.7-2.4-3.2-2.4c-2,0-3.5,0.6-3.6,2.8h-2.4c0.1-3.6,2.9-4.9,6.2-4.9
		c2.6,0,5.4,0.6,5.4,4v7.5c0,1.1,0,1.6,0.8,1.6c0.2,0,0.4,0,0.7-0.1V328.9z M123.3,321.4c-0.9,0.7-2.7,0.7-4.3,1
		c-1.6,0.3-2.9,0.8-2.9,2.6c0,1.6,1.3,2.1,2.8,2.1c3.1,0,4.4-2,4.4-3.3V321.4z"/>
</g>
</svg>
