<?xml version="1.0" encoding="utf-8"?>
<!-- Generator: Adobe Illustrator 19.0.0, SVG Export Plug-In . SVG Version: 6.00 Build 0)  -->
<svg version="1.1" id="Layer_1" xmlns="http://www.w3.org/2000/svg" xmlns:xlink="http://www.w3.org/1999/xlink" x="0px" y="0px"
	 viewBox="-12 310.6 585.6 171.4" style="enable-background:new -12 310.6 585.6 171.4;" xml:space="preserve">
<style type="text/css">
	.st0{fill:#EC2127;}
	.st1{fill:#FFFFFF;}
</style>
<rect id="XMLID_33_" x="-12" y="310.6" class="st0" width="585.6" height="171.4"/>
<g id="XMLID_34_">
	<path id="XMLID_58_" class="st1" d="M205.7,386.5l-1.2-19.1c-0.2-0.5-0.9-0.5-0.9,0c-0.1,4.1-7.4,0.6-9.9,0.1
		c-22.5-5.2-37.6,12.9-37.7,27.9l0,0c0,19.4,12.8,30,29.3,30c13.1,0,19.8-8.4,22-17.5c0.3-1.2-1-0.9-1.3,0
		c-4,12.7-13.8,15.9-18.8,15.8c-10.6-0.2-20.5-8.8-20.9-28.3c-0.4-25,27.8-41.2,38.4-9.2C205,386.9,205.6,387.1,205.7,386.5z"/>
	<path id="XMLID_55_" class="st1" d="M214.6,389.6c5.8-2.4,21.6-1.6,21.6,5.6v22.1c0,6,5.9,8.1,7.7,4.1c0.5-0.5,1.5-0.2,1,0.8
		c-1.1,4.3-11.7,4.9-15.3-0.8c-20.3,14.7-33.2-14.3-8.9-14.8c7.6-1.2,8.4-5.5,8.4-8.5c0-7.6-4-8.3-6.3-8.3c-2.5,0-4.6,0.8-5.9,4.7
		C214.5,402.2,202.8,395.2,214.6,389.6z M220.1,423.7c4.9,0.6,9.1-3.8,9.1-8.1v-10.4C208.6,412.8,215.1,423.4,220.1,423.7z"/>
	<path id="XMLID_54_" class="st1" d="M255.9,388.9l-9.9,1.3c-0.6,0.2-0.6,0.5,0.5,0.8c2.1,0.1,3.5,1.6,3.5,4.7v23
		c0,2.7-3.8,5.2-4.7,5.5c-1.9,0.8,0.9,0.6,0.9,0.6h16.1c0.5,0,2.2,0.2,0.1-0.9c-2.4-0.9-5.1-2.9-5.1-5.3c0-2.3,0-17.3,0-17.3
		c0-7.3,4.8-11.3,9.4-11.3c4.9,0,8.9,1.1,8.9,11.2v17.4c0,2.5-3.3,4.9-5.1,5.4c-1.2,0.3-1.6,0.7-0.6,0.7h17.2
		c0.9,0.1,1.3-0.2,0.5-0.5c-4.1-1.6-4.7-4.7-4.7-5.6v-20.2c0-11.6-11.1-10-15-10c-4.9,0.1-10.1,3.1-10.6,4.5
		C257.3,389.2,256.8,388.8,255.9,388.9z"/>
	<path id="XMLID_50_" class="st1" d="M354,422c-1.7,2.9-5.8,3.6-11,3.6c-9.7,0-17.7-7.5-17.7-17.8c0-9.1,5.2-19.3,18.2-19.3
		c11.7,0,11.7,7.9,11.7,1.3v-11.6c0-5.9-2.3-7.7-4.1-8.3c-2.7-0.9-6.1-1.1-0.6-1.1l10.2-0.2c0.5,0,0.7,0.2,0.7,1.1l-0.1,45.1
		c0,3.1,1.2,8,6.2,9.3c0.5,0.1,1,0.4,0.5,0.5l-11.2,1.2c-1.6,0.2-2.3-0.6-3-3.8 M344.1,423.8c6.1,0,10.2-2.3,10.2-16.6
		c0-13.5-4.1-16.8-10.2-16.8s-11,7.9-11,17S338,423.8,344.1,423.8z"/>
	<path id="XMLID_49_" class="st1" d="M344.1,407.3"/>
	<path id="XMLID_46_" class="st1" d="M295.7,389.7c5.8-2.4,21.6-1.6,21.6,5.6v22.1c0,6,5.9,8.1,7.7,4.1c0.5-0.5,1.5-0.2,1,0.8
		c-1.1,4.3-11.7,4.9-15.3-0.8c-20.3,14.7-33.2-14.3-8.9-14.8c7.6-1.2,8.4-5.5,8.4-8.5c0-7.6-4-8.3-6.3-8.3c-2.5,0-4.6,0.8-5.9,4.7
		C295.6,402.2,283.9,395.2,295.7,389.7z M300.9,423.7c4.9,0.6,9.1-3.8,9.1-8.1v-10.4C289.5,412.8,295.9,423.4,300.9,423.7z"/>
	<path id="XMLID_43_" class="st1" d="M375.2,389.8c5.8-2.4,21.6-1.6,21.6,5.6v22.1c0,6,5.9,8.1,7.7,4.1c0.5-0.5,1.5-0.2,1,0.8
		c-1.1,4.3-11.7,4.9-15.3-0.8c-20.3,14.7-33.2-14.3-8.9-14.8c7.6-1.2,8.4-5.5,8.4-8.5c0-7.6-4-8.3-6.3-8.3c-2.5,0-4.6,0.8-5.9,4.7
		C375.1,402.3,363.4,395.4,375.2,389.8z M380.4,423.8c4.9,0.6,9.1-3.8,9.1-8.1v-10.4C368.9,413,375.4,423.5,380.4,423.8z"/>
	<g id="XMLID_40_">
		
			<rect id="XMLID_42_" x="361.9" y="373.1" transform="matrix(1.115888e-003 -1 1 1.115888e-003 -7.2332 747.3624)" class="st1" width="17.1" height="8.4"/>
		<path id="XMLID_41_" class="st1" d="M370.5,377.3"/>
	</g>
	<g id="XMLID_37_">
		
			<rect id="XMLID_39_" x="389" y="373.1" transform="matrix(1.114265e-003 -1 1 1.114265e-003 19.7606 774.4116)" class="st1" width="17.1" height="8.4"/>
		<path id="XMLID_38_" class="st1" d="M397.6,377.3"/>
	</g>
	<g id="XMLID_35_">
		<path id="XMLID_36_" class="st1" d="M382.9,372.3l1.2-2.4l1.2,2.3c0.2,0.2,0.2,0.2,0.5,0.1l1-0.5l-0.7,3.3
			c-0.2,0.6,0.2,0.9,0.6,0.4l1.5-1.6l0.4,0.9c0.2,0.2,0.3,0.2,0.5,0.2l1.5-0.3l-0.5,1.9v0.1c-0.1,0.2-0.2,0.5,0.1,0.5l0.5,0.2
			l-3.1,2.7c-0.3,0.3-0.2,0.5-0.1,0.8l0.3,0.9l-2.8-0.4c-0.4-0.1-0.6-0.1-0.6,0.2l0.2,3.4h-0.9l0.2-3.3c0-0.3-0.2-0.3-0.9-0.2
			l-2.7,0.5l0.4-0.9c0.1-0.3,0.2-0.5-0.2-0.8l-3.2-2.6l0.6-0.4c0.2-0.2,0.2-0.2,0.1-0.5l-0.6-2l1.6,0.3c0.5,0.1,0.5,0,0.6-0.2
			l0.4-0.9l1.5,1.7c0.2,0.3,0.6,0.1,0.5-0.3l-0.7-3.6l1.1,0.6C382.6,372.4,382.8,372.4,382.9,372.3"/>
	</g>
</g>
</svg>
