<?xml version="1.0" encoding="utf-8"?>
<!-- Generator: Adobe Illustrator 19.0.0, SVG Export Plug-In . SVG Version: 6.00 Build 0)  -->
<svg version="1.1" id="Layer_1" xmlns="http://www.w3.org/2000/svg" xmlns:xlink="http://www.w3.org/1999/xlink" x="0px" y="0px"
	 viewBox="0 0 585.6 254.4" style="enable-background:new 0 0 585.6 254.4;" xml:space="preserve">
<style type="text/css">
	.st0{fill:#EC2127;}
	.st1{fill:#FFFFFF;}
</style>
<rect id="XMLID_33_" x="0" y="0" class="st0" width="585.6" height="254.4"/>
<g id="XMLID_34_">
	<path id="XMLID_58_" class="st1" d="M196.9,114.7l-1.5-24.4c-0.2-0.6-1.2-0.6-1.2,0c-0.1,5.3-9.4,0.8-12.7,0.1
		c-28.8-6.6-48.1,16.5-48.2,35.6l0,0c0,24.8,16.4,38.3,37.5,38.4c16.8,0,25.3-10.7,28.1-22.4c0.4-1.5-1.3-1.2-1.7,0
		c-5.1,16.2-17.7,20.3-24,20.2c-13.6-0.2-26.2-11.2-26.7-36.2c-0.5-31.9,35.5-52.7,49.1-11.7C196,115.2,196.7,115.4,196.9,114.7z"/>
	<path id="XMLID_55_" class="st1" d="M208.2,118.6c7.4-3.1,27.6-2.1,27.6,7.1l0,28.3c0,7.7,7.6,10.4,9.8,5.2c0.7-0.7,1.9-0.2,1.3,1
		c-1.4,5.5-14.9,6.3-19.6-1c-25.9,18.8-42.4-18.3-11.4-18.9c9.7-1.5,10.8-7,10.8-10.9c0-9.7-5.1-10.6-8.1-10.6c-3.2,0-5.9,1-7.6,6
		C208.1,134.7,193.1,125.8,208.2,118.6z M215.3,162.2c6.2,0.8,11.6-4.8,11.6-10.3l0-13.3C200.6,148.3,208.8,161.8,215.3,162.2z"/>
	<path id="XMLID_54_" class="st1" d="M261,117.7l-12.6,1.6c-0.8,0.2-0.8,0.6,0.7,1c2.7,0.1,4.5,2,4.5,6l0,29.4c0,3.5-4.9,6.6-6,7
		c-2.4,1,1.2,0.8,1.2,0.8l20.6,0c0.7,0,2.8,0.2,0.1-1.1c-3.1-1.2-6.5-3.7-6.5-6.8c0-3,0-22.1,0-22.1c0-9.3,6.1-14.4,12-14.4
		c6.3,0,11.4,1.4,11.4,14.3l0,22.2c0,3.2-4.2,6.2-6.5,6.9c-1.5,0.4-2.1,0.9-0.8,0.9l22,0c1.2,0.1,1.7-0.3,0.6-0.6
		c-5.3-2.1-6-6-6-7.2l0-25.8c0-14.8-14.2-12.8-19.2-12.8c-6.3,0.1-12.9,4-13.6,5.8C262.8,118.1,262.2,117.6,261,117.7z"/>
	<path id="XMLID_50_" class="st1" d="M386.4,160.1c-2.2,3.7-7.4,4.6-14,4.6c-12.4,0-22.6-9.6-22.6-22.7c0-11.6,6.6-24.7,23.3-24.7
		c15,0,14.9,10.1,14.9,1.7l0-14.8c0-7.6-3-9.9-5.3-10.6c-3.4-1.2-7.8-1.4-0.8-1.4l13.1-0.3c0.7,0,0.9,0.2,0.9,1.4l-0.1,57.7
		c0,4,1.5,10.2,7.9,11.9c0.6,0.1,1.3,0.5,0.6,0.7l-14.3,1.5c-2.1,0.2-2.9-0.8-3.8-4.8 M373.7,162.3c7.8,0,13-3,13-21.2
		c0-17.3-5.2-21.5-13-21.5c-7.8,0-14.1,10.1-14.1,21.7C359.6,152.9,365.9,162.3,373.7,162.3z"/>
	<path id="XMLID_49_" class="st1" d="M373.7,141.3"/>
	<path id="XMLID_46_" class="st1" d="M311.9,118.7c7.4-3.1,27.6-2.1,27.6,7.1l0,28.3c0,7.7,7.6,10.4,9.8,5.2c0.7-0.7,1.9-0.2,1.3,1
		c-1.4,5.5-14.9,6.3-19.6-1c-25.9,18.8-42.4-18.3-11.4-18.9c9.7-1.5,10.8-7,10.8-10.9c0-9.7-5.1-10.6-8.1-10.6c-3.2,0-5.9,1-7.6,6
		C311.8,134.7,296.8,125.8,311.9,118.7z M318.5,162.2c6.2,0.8,11.6-4.8,11.6-10.3l0-13.3C303.9,148.3,312.1,161.8,318.5,162.2z"/>
	<path id="XMLID_43_" class="st1" d="M413.5,118.9c7.4-3.1,27.6-2.1,27.6,7.1l0,28.3c0,7.7,7.6,10.4,9.8,5.2c0.7-0.7,1.9-0.2,1.3,1
		c-1.4,5.5-14.9,6.3-19.6-1c-25.9,18.8-42.4-18.3-11.4-18.9c9.7-1.5,10.8-7,10.8-10.9c0-9.7-5.1-10.6-8.1-10.6c-3.2,0-5.9,1-7.6,6
		C413.4,134.9,398.4,126,413.5,118.9z M420.1,162.4c6.2,0.8,11.6-4.8,11.6-10.3l0-13.3C405.4,148.5,413.7,162,420.1,162.4z"/>
	<g id="XMLID_40_">
		
			<rect id="XMLID_42_" x="396.5" y="97.5" transform="matrix(-1.115889e-003 1 -1 -1.115889e-003 510.8195 -304.4327)" class="st1" width="21.9" height="10.8"/>
		<path id="XMLID_41_" class="st1" d="M407.5,102.9"/>
	</g>
	<g id="XMLID_37_">
		
			<rect id="XMLID_39_" x="431.1" y="97.6" transform="matrix(-1.114266e-003 1 -1 -1.114266e-003 545.5154 -339.0166)" class="st1" width="21.9" height="10.8"/>
		<path id="XMLID_38_" class="st1" d="M442.1,102.9"/>
	</g>
	<g id="XMLID_35_">
		<path id="XMLID_36_" class="st1" d="M423.3,96.5l1.5-3.1l1.5,3c0.2,0.3,0.3,0.3,0.6,0.1l1.3-0.6l-0.9,4.2
			c-0.2,0.8,0.3,1.1,0.8,0.5l1.9-2l0.5,1.1c0.2,0.3,0.4,0.3,0.7,0.2l1.9-0.4l-0.6,2.4l0,0.1c-0.1,0.3-0.2,0.6,0.1,0.7l0.7,0.3
			l-4,3.4c-0.4,0.4-0.3,0.6-0.1,1l0.4,1.1L426,108c-0.5-0.1-0.8-0.1-0.8,0.3l0.2,4.3h-1.1l0.2-4.2c0-0.4-0.3-0.4-1.1-0.3l-3.4,0.7
			l0.5-1.1c0.1-0.4,0.2-0.7-0.2-1l-4.1-3.3l0.8-0.5c0.2-0.2,0.2-0.3,0.1-0.7l-0.8-2.5l2,0.4c0.6,0.1,0.7,0,0.8-0.3l0.5-1.1l1.9,2.2
			c0.3,0.4,0.8,0.1,0.7-0.4l-0.9-4.6l1.4,0.8C422.9,96.7,423.2,96.7,423.3,96.5"/>
	</g>
</g>
</svg>
