<?xml version="1.0" encoding="utf-8"?>
<!-- Generator: Adobe Illustrator 19.0.0, SVG Export Plug-In . SVG Version: 6.00 Build 0)  -->
<svg version="1.1" id="Layer_1" xmlns="http://www.w3.org/2000/svg" xmlns:xlink="http://www.w3.org/1999/xlink" x="0px" y="0px"
	 viewBox="0 0 272.4 435" style="enable-background:new 0 0 272.4 435;" xml:space="preserve">
<style type="text/css">
	.st0{fill:#F6D8BF;}
	.st1{fill:#020202;}
	.st2{fill:#7D7D7D;}
</style>
<polygon id="XMLID_4_" class="st0" points="18,194.2 18,219.1 10.2,214.7 4.1,217.5 0,233 2.4,251.1 9,277.6 9,291.5 11.2,299 
	14.8,299 21.4,294.9 42.2,352.6 74.8,403.1 113.3,423.2 156.1,421.1 183,412.3 208.2,379.3 244.3,313.6 249.4,297.7 256.2,306.2 
	261.9,306.8 265.3,300 262.3,290.9 267,259.6 272.4,239.8 270.4,220.4 262.6,215 251.1,220.4 253.6,156.5 239.1,83 226.6,68 
	151.4,57.5 53.4,91.8 19.7,166 "/>
<polygon id="XMLID_1_" class="st1" points="55.1,23 22.5,68.4 4.1,107.7 6.6,145.4 9.2,157.2 14.8,160.7 15.3,192.4 18.4,217.5 
	21.4,182.7 27,162.3 68.9,106.6 104.6,85.7 188.3,82.7 209.7,91.3 227.1,76.5 215.3,92.9 230.1,113.3 226.1,135.7 242.9,177.1 
	249.5,234.7 259.7,192.9 265.3,118.9 254.1,71.4 236.3,71.4 247,51.5 232.2,15.3 181.1,2.6 102.1,0 "/>
<polygon id="XMLID_2_" class="st2" points="18.4,223 14.8,273.5 21.4,335.8 33.7,368.4 104.6,432.7 119.4,435 134.2,433 145.4,435 
	161.6,434.3 191.9,412.3 240.8,360.3 253.6,298.5 250,238.8 237.8,306.2 198.5,338.3 191.4,393.9 169.4,410.3 152.1,399.5 
	114.8,398.5 100.5,411.8 73.5,392.4 67.9,347 34.2,318.9 19.4,270.4 "/>
<polygon id="XMLID_3_" class="st2" points="85.7,333.7 81.6,347 85.7,352.6 125,336.3 134.7,338.3 145.4,336.8 184.7,347 
	189.3,340.9 182.7,329 144.9,319.4 136.2,325 126,319.4 "/>
</svg>
